<svg xmlns="http://www.w3.org/2000/svg" xmlns:xlink="http://www.w3.org/1999/xlink" width="1200" zoomAndPan="magnify" viewBox="0 0 900 225" height="300" preserveAspectRatio="xMidYMid meet" version="1.0"><defs><g/></defs><path stroke-linecap="butt" transform="matrix(0.75, 0, 0, 0.75, 0.000000000000042633, 3.919972)" fill="none" stroke-linejoin="miter" d="M 39.041668 17.455663 L 31.932293 7.820246 C 28.104168 5.747329 20.765626 6.674413 20.765626 6.674413 L 19.171876 7.148371 C 19.171876 7.148371 18.338542 40.132747 19.395834 53.851498 L 20.479168 55.320248 L 30.781251 55.986915 L 31.802085 55.669206 C 31.802085 55.669206 31.994793 48.841081 31.963543 48.174414 C 31.963543 47.471289 31.609376 35.830664 31.609376 35.830664 L 38.057293 44.726498 L 45.104169 39.466081 L 45.359377 55.955665 L 54.130211 55.351498 C 54.130211 55.351498 55.406252 9.893163 54.994794 9.799413 C 49.890627 8.617121 45.645835 8.903579 45.645835 8.903579 L 44.052085 9.382746 Z M 64.593753 7.851496 C 63.093753 22.877538 61.723961 36.403581 60.927086 52.736915 L 62.010419 53.945248 L 77.35417 54.710873 L 77.833337 44.887956 L 83.60417 45.268164 C 84.817712 53.65879 84.562504 52.195248 85.13542 54.268165 C 87.786462 54.361915 91.963545 54.200456 94.260421 54.200456 C 92.729171 38.190039 90.432295 23.736913 88.583337 7.788996 C 85.489587 7.502538 72.536461 5.908788 64.593753 7.851496 Z M 76.015628 36.721289 L 75.85417 27.377538 C 75.85417 27.377538 75.630211 26.387955 83.255212 26.929622 L 83.890628 37.169206 Z M 98.854171 34.90358 C 99.619796 34.84108 105.869796 34.679622 109.505213 34.518164 C 109.536463 41.825456 109.666671 47.757748 110.04688 52.575456 L 111.135421 54.044206 L 118.947922 54.710873 C 118.947922 54.710873 119.23438 45.049414 119.489588 34.007747 C 125.776047 33.690039 128.583339 33.37233 131.739589 33.179622 C 132.380214 29.127539 131.42188 10.820246 131.197922 7.851496 C 125.645839 7.216079 104.114588 5.523371 98.567712 6.226496 C 98.567712 6.226496 96.489587 24.09108 98.854171 34.90358 Z M 136.239589 34.90358 C 137.005214 34.84108 143.255214 34.679622 146.890631 34.518164 C 146.921881 41.825456 147.052089 47.757748 147.432298 52.575456 L 148.52084 54.044206 L 156.33334 54.710873 C 156.33334 54.710873 156.619798 45.049414 156.875007 34.007747 C 163.161465 33.690039 165.968757 33.37233 169.125007 33.179622 C 169.765632 29.127539 168.807299 10.820246 168.58334 7.851496 C 163.031257 7.216079 141.500006 5.523371 135.953131 6.226496 C 135.953131 6.226496 133.875006 24.09108 136.239589 34.90358 Z M 176.781257 9.575454 C 176.781257 9.575454 177.354174 53.247331 177.453132 53.309831 C 177.484382 53.341081 178.916674 53.913998 179.015632 53.945248 C 179.109382 53.981706 188.072925 54.361915 188.072925 54.361915 C 187.979174 54.361915 188.77605 36.783789 188.77605 36.783789 C 188.77605 36.783789 194.833341 36.627539 194.833341 36.721289 C 194.833341 36.815039 195.473966 53.53379 195.473966 54.044206 C 195.473966 54.554623 208.645842 55.00254 208.645842 55.00254 L 207.979175 7.950454 C 203.671883 5.554621 193.33855 6.992121 193.33855 6.992121 L 192.890633 20.835872 L 192.729175 25.877538 L 186.255216 26.101497 C 186.255216 26.101497 185.713549 25.492122 185.713549 25.335872 L 185.906258 8.903579 C 182.489591 8.268163 176.781257 9.575454 176.781257 9.575454 Z M 249.286469 19.46608 C 250.911469 14.455663 249.447927 7.247329 249.447927 7.247329 L 247.43751 7.117121 L 220.067718 7.820246 C 220.067718 7.820246 218.885426 10.372329 218.760426 12.413996 C 218.630217 14.455663 218.442717 46.867123 219.875009 50.695248 C 220.578134 52.575456 221.213551 54.523373 221.916676 54.679623 C 222.619801 54.841081 230.723968 55.476498 241.119802 55.382748 C 251.520844 55.288998 249.223969 55.544206 249.223969 55.544206 L 248.90626 46.481706 C 248.90626 46.481706 247.40626 45.492123 247.46876 45.559831 C 247.53126 45.622331 248.359385 45.684831 248.359385 45.684831 L 232.796885 45.559831 L 232.00001 44.695248 L 232.21876 36.627539 C 242.619802 36.528581 247.947927 36.148372 247.947927 36.148372 L 247.947927 32.190039 C 247.947927 32.190039 247.40626 28.971289 247.46876 29.033789 C 247.53126 29.096289 243.578135 29.163997 243.578135 29.163997 L 235.31251 29.195247 C 233.911468 25.236913 234.291676 20.387955 234.291676 20.387955 C 247.182302 19.752538 249.286469 19.46608 249.286469 19.46608 Z M 275.635428 29.419205 L 273.593761 33.148372 L 270.182303 39.466081 L 269.28647 7.658788 L 260.515636 7.950454 C 260.515636 7.950454 259.239594 53.403581 259.651052 53.50254 C 264.755219 54.679623 268.359386 54.075456 268.359386 54.075456 L 269.958345 53.59629 L 274.963553 43.294206 L 282.718762 54.523373 C 286.541679 56.59629 293.880221 55.669206 293.880221 55.669206 L 295.473971 55.19004 C 295.473971 55.19004 296.307304 22.205663 295.255221 8.492121 L 294.166679 7.023371 L 283.864595 6.674413 L 282.843762 6.992121 C 282.843762 6.992121 282.682303 13.49733 282.682303 14.169205 C 282.651053 14.87233 283.03647 39.242122 283.03647 39.242122 Z M 322.906263 6.861913 C 322.906263 6.861913 320.484388 24.27858 322.682305 41.507747 C 323.38543 47.153581 324.630222 52.799415 326.578139 57.773373 C 326.578139 57.773373 344.729181 56.278581 352.67189 55.320248 L 352.510431 43.419206 C 346.385431 43.387956 345.494806 43.773372 339.781264 43.773372 C 339.177097 43.773372 333.145847 43.611914 332.666681 42.877539 C 332.411472 42.335872 331.390639 38.346289 331.390639 38.346289 C 331.390639 38.346289 331.10418 36.341081 332.348972 34.585872 C 333.432306 33.023372 353.437515 33.565039 355.255223 33.179622 C 354.901056 33.945247 355.95314 27.788997 355.95314 27.788997 C 355.95314 24.919205 355.76564 11.455663 355.541681 8.492121 C 349.989598 7.851496 328.458347 6.163996 322.906263 6.861913 Z M 383.322933 29.481705 C 383.067724 32.002539 382.875016 40.742122 381.473974 40.835872 C 381.473974 40.835872 380.166683 41.346289 380.166683 41.283789 C 380.166683 41.190039 373.468766 41.762956 372.796891 41.190039 L 371.937515 40.038997 L 371.35939 36.752539 C 371.35939 36.752539 370.692724 29.065039 371.29689 28.143163 C 371.29689 28.143163 372.604182 26.867122 379.369807 26.867122 C 382.208349 26.867122 383.546891 26.960872 383.322933 29.481705 Z M 394.937516 8.492121 C 377.359391 4.757746 365.526057 8.492121 365.526057 8.492121 L 363.385432 10.658788 C 360.54689 29.288997 365.781265 50.533789 365.781265 50.533789 L 366.385432 52.736915 C 373.625016 59.882748 389.000016 55.382748 389.000016 55.476498 C 389.000016 55.575456 391.744808 52.830665 391.744808 52.830665 C 399.2396 36.049414 396.1771 10.085871 396.1771 10.085871 Z M 437.166685 55.19004 L 437.93231 50.440039 C 437.93231 47.565039 437.74481 39.210872 437.520852 36.242122 C 433.020851 35.731705 424.505226 34.84108 416.020851 34.773372 C 416.244809 23.481705 416.432309 7.913996 416.244809 7.882746 C 411.140642 6.705663 407.854184 6.992121 407.854184 6.992121 L 406.260434 7.471288 C 406.260434 7.471288 405.4271 40.132747 406.484392 53.851498 L 407.567725 55.320248 L 436.437518 55.924415 Z M 476.244812 55.19004 L 477.010437 50.440039 C 477.010437 47.565039 476.817728 39.210872 476.59377 36.242122 C 472.098978 35.731705 463.583353 34.84108 455.093769 34.773372 C 455.317727 23.481705 455.510436 7.913996 455.317727 7.882746 C 450.21356 6.705663 446.927102 6.992121 446.927102 6.992121 L 445.333352 7.471288 C 445.333352 7.471288 444.505227 40.132747 445.55731 53.851498 L 446.640644 55.320248 L 475.510436 55.924415 Z M 482.369812 40.580664 C 480.359395 43.736914 481.442728 54.585873 481.442728 54.585873 C 483.135437 55.06504 495.192729 56.117123 499.723979 54.554623 C 499.723979 54.554623 500.901063 47.309831 500.265646 43.262956 C 499.401062 43.195247 495.989604 43.038997 495.161479 42.940039 C 495.348979 36.242122 495.604187 26.643163 495.703146 21.02858 C 496.593771 20.929622 500.744813 20.773372 501.541688 20.742122 C 502.177104 16.690038 501.000021 6.575454 501.000021 6.575454 C 496.468771 5.012954 483.135437 6.065038 481.442728 6.544204 C 481.442728 6.544204 481.697937 21.919205 482.369812 22.460872 L 482.942728 22.908788 L 487.18752 23.038997 C 487.026062 28.84108 487.151062 40.611914 487.151062 40.611914 Z M 534.651064 34.679622 C 534.651064 34.679622 531.526064 26.992122 531.239605 26.356705 C 530.947939 25.71608 524.50523 12.700455 524.50523 12.700455 L 524.47398 12.669205 C 519.369813 11.486913 512.895855 11.778579 512.895855 11.778579 L 511.302105 12.252538 C 511.302105 12.252538 510.468771 40.132747 511.526063 53.851498 L 512.609396 55.320248 L 520.677105 55.669206 L 521.697938 55.351498 C 521.697938 55.351498 521.890647 48.841081 521.859397 48.174414 C 521.859397 47.502539 521.510438 38.059831 521.510438 38.059831 C 521.510438 38.059831 526.994814 47.820248 527.343772 48.398373 C 527.697939 48.971289 531.750022 55.637956 531.750022 55.637956 L 544.031273 55.986915 C 544.031273 55.986915 545.307314 7.658788 544.890648 7.565038 C 539.786481 6.382746 536.500022 6.674413 536.500022 6.674413 C 536.500022 6.674413 535.067731 6.736913 534.906272 7.148371 Z M 586.359399 54.200456 C 587.026066 53.913998 587.729191 38.028581 587.729191 38.028581 L 587.218774 37.486914 L 560.234398 36.049414 L 560.677107 31.585872 C 560.677107 31.585872 582.338566 31.74733 583.072941 31.585872 C 583.776066 31.455664 582.942733 7.440038 582.338566 7.309829 C 580.713566 6.992121 554.364606 8.716079 553.79169 9.158788 C 553.723981 9.190038 552.895856 10.341079 552.895856 10.341079 C 551.395856 12.320246 550.984398 38.893164 551.333356 38.893164 C 551.333356 38.893164 556.020857 40.294206 568.239607 40.898372 C 567.984399 42.877539 567.536482 45.591081 567.536482 45.591081 C 566.802107 45.591081 553.375023 43.736914 553.375023 43.736914 C 553.281273 43.804622 552.640648 44.919206 552.640648 44.919206 C 552.640648 44.919206 552.671898 52.575456 553.182315 53.56504 Z M 632.197943 35.986914 C 632.197943 35.986914 632.291693 28.84108 632.385443 25.398372 C 632.385443 25.398372 611.463567 25.65358 611.463567 25.71608 C 611.463567 25.846288 611.494817 34.455664 611.494817 34.455664 L 612.770859 34.99733 Z M 677.333362 21.950455 C 677.333362 21.950455 678.098987 27.12233 677.364612 30.30983 C 677.364612 30.30983 671.270861 31.012955 670.348986 30.913997 C 669.421903 31.012955 667.541694 30.627539 667.541694 30.627539 C 667.541694 30.627539 667.156278 28.361914 667.218778 27.502538 C 667.125028 26.643163 667.541694 22.111913 667.541694 22.111913 Z M 669.135445 38.190039 C 673.760445 38.570247 676.692737 39.497331 690.281279 38.476497 C 690.859404 31.268164 692.005237 16.37233 690.859404 7.658788 C 690.859404 7.658788 679.27607 5.330663 669.005236 6.575454 C 667.796903 6.736913 662.562528 7.788996 661.348986 8.236913 L 659.661486 9.893163 C 659.661486 9.893163 660.296903 30.37233 660.838569 54.200456 L 667.760444 54.679623 L 669.135445 54.012956 Z M 717.93753 29.481705 C 717.682322 32.002539 717.494822 40.742122 716.088572 40.835872 C 716.088572 40.835872 714.78128 41.346289 714.78128 41.283789 C 714.78128 41.190039 708.083363 41.762956 707.411488 41.190039 L 706.552113 40.038997 L 705.979196 36.752539 C 705.979196 36.752539 705.307321 29.065039 705.911488 28.143163 C 705.911488 28.143163 707.218779 26.867122 713.984405 26.867122 C 716.822947 26.867122 718.161488 26.960872 717.93753 29.481705 Z M 729.552114 8.492121 C 711.973988 4.757746 700.140654 8.492121 700.140654 8.492121 L 698.000029 10.658788 C 695.161487 29.288997 700.395863 50.533789 700.395863 50.533789 L 701.000029 52.736915 C 708.239613 59.882748 723.619822 55.382748 723.619822 55.476498 C 723.619822 55.575456 726.359405 52.830665 726.359405 52.830665 C 733.859406 36.049414 730.796905 10.085871 730.796905 10.085871 Z M 767.510449 36.690039 C 771.020865 30.565039 772.421907 15.669205 771.276074 7.023371 C 771.276074 7.023371 758.09899 5.330663 747.828156 6.575454 C 746.614614 6.736913 742.979198 7.148371 741.765656 7.596288 L 740.078156 9.257746 C 740.078156 9.257746 740.713573 30.37233 741.255239 54.200456 L 748.177115 54.679623 L 749.552115 54.012956 L 749.552115 38.190039 C 751.81774 38.382747 753.666698 38.700456 756.50524 38.856706 L 766.713574 55.351498 C 766.682324 55.382748 767.734407 55.445248 767.796907 55.512956 L 767.958365 55.413998 L 771.687532 53.278581 C 773.921907 51.460873 775.166699 49.799414 777.333366 47.757748 C 775.291699 44.570248 767.510449 36.690039 767.510449 36.690039 Z M 757.750032 21.950455 C 757.750032 21.950455 758.515657 27.12233 757.781282 30.30983 C 757.781282 30.30983 751.687531 31.012955 750.760448 30.913997 C 749.838573 31.012955 747.953156 30.627539 747.953156 30.627539 C 747.953156 30.627539 747.572948 28.361914 747.635448 27.502538 C 747.541698 26.643163 747.953156 22.111913 747.953156 22.111913 Z M 794.526075 54.268165 L 793.57295 37.934831 L 794.114616 36.627539 C 804.51045 36.528581 811.755242 36.148372 811.755242 36.148372 L 811.755242 32.190039 C 811.755242 32.190039 811.208367 28.971289 811.276075 29.033789 C 811.338575 29.096289 807.38545 29.163997 807.38545 29.163997 L 799.119825 29.195247 C 797.718783 25.236913 798.098992 20.387955 798.098992 20.387955 C 810.989617 19.752538 813.093784 19.46608 813.093784 19.46608 C 814.718784 14.455663 813.250034 7.247329 813.250034 7.247329 L 811.244825 7.117121 L 783.875033 7.820246 C 783.875033 7.820246 782.692741 10.372329 782.567741 12.413996 C 782.437533 14.455663 784.093783 55.00254 784.093783 55.00254 L 793.6042 55.03379 Z M 841.895868 29.481705 C 841.64066 32.002539 841.447952 40.742122 840.04691 40.835872 C 840.04691 40.835872 838.739618 41.346289 838.739618 41.283789 C 838.739618 41.190039 832.041701 41.762956 831.369826 41.190039 L 830.510451 40.038997 L 829.932326 36.752539 C 829.932326 36.752539 829.26566 29.065039 829.869826 28.143163 C 829.869826 28.143163 831.177118 26.867122 837.942743 26.867122 C 840.781285 26.867122 842.119827 26.960872 841.895868 29.481705 Z M 853.510452 8.492121 C 835.932326 4.757746 824.098993 8.492121 824.098993 8.492121 L 821.958368 10.658788 C 819.119826 29.288997 824.354201 50.533789 824.354201 50.533789 L 824.958368 52.736915 C 832.197951 59.882748 847.572952 55.382748 847.572952 55.476498 C 847.572952 55.575456 850.317744 52.830665 850.317744 52.830665 C 857.812536 36.049414 854.750036 10.085871 854.750036 10.085871 Z M 895.739621 55.19004 L 896.505246 50.440039 C 896.505246 47.565039 896.317746 39.210872 896.093787 36.242122 C 891.593787 35.731705 883.078162 34.84108 874.593786 34.773372 C 874.817745 23.481705 875.005245 7.913996 874.817745 7.882746 C 869.713578 6.705663 866.427119 6.992121 866.427119 6.992121 L 864.833369 7.471288 C 864.833369 7.471288 864.000036 40.132747 865.057328 53.851498 L 866.140661 55.320248 L 895.010454 55.924415 Z M 901.864621 40.580664 C 899.854204 43.736914 900.942746 54.585873 900.942746 54.585873 C 902.630246 55.06504 914.687538 56.117123 919.218788 54.554623 C 919.218788 54.554623 920.40108 47.309831 919.760455 43.262956 C 918.90108 43.195247 915.484413 43.038997 914.656288 42.940039 C 914.848996 36.242122 915.104205 26.643163 915.197955 21.02858 C 916.093788 20.929622 920.239622 20.773372 921.036497 20.742122 C 921.677122 16.690038 920.49483 6.575454 920.49483 6.575454 C 915.96358 5.012954 902.630246 6.065038 900.942746 6.544204 C 900.942746 6.544204 901.197954 21.919205 901.864621 22.460872 L 902.437538 22.908788 L 906.682329 23.038997 C 906.520871 28.84108 906.651079 40.611914 906.651079 40.611914 Z M 949.588581 29.481705 C 949.333373 32.002539 949.140665 40.742122 947.734414 40.835872 C 947.734414 40.835872 946.427123 41.346289 946.427123 41.283789 C 946.427123 41.190039 939.729206 41.762956 939.057331 41.190039 L 938.197956 40.038997 L 937.625039 36.752539 C 937.625039 36.752539 936.953164 29.065039 937.562539 28.143163 C 937.562539 28.143163 938.869831 26.867122 945.630248 26.867122 C 948.46879 26.867122 949.807331 26.960872 949.588581 29.481705 Z M 961.197957 8.492121 C 943.619831 4.757746 931.786497 8.492121 931.786497 8.492121 L 929.65108 10.658788 C 926.812539 29.288997 932.041706 50.533789 932.041706 50.533789 L 932.645872 52.736915 C 939.890664 59.882748 955.265665 55.382748 955.265665 55.476498 C 955.265665 55.575456 958.005248 52.830665 958.005248 52.830665 C 965.505249 36.049414 962.442748 10.085871 962.442748 10.085871 Z M 1008.5365 35.986914 C 1008.5365 35.986914 1008.63025 28.84108 1008.724 25.398372 C 1008.724 25.398372 987.802124 25.65358 987.802124 25.71608 C 987.802124 25.846288 987.833374 34.455664 987.833374 34.455664 L 989.109416 34.99733 Z M 1059.187544 34.679622 C 1059.187544 34.679622 1056.062544 26.992122 1055.776086 26.356705 C 1055.489627 25.71608 1049.046919 12.700455 1049.046919 12.700455 L 1049.015669 12.669205 C 1043.911502 11.486913 1037.432335 11.778579 1037.432335 11.778579 L 1035.838585 12.252538 C 1035.838585 12.252538 1035.01046 40.132747 1036.062543 53.851498 L 1037.145877 55.320248 L 1045.218794 55.669206 L 1046.239627 55.351498 C 1046.239627 55.351498 1046.432335 48.841081 1046.395877 48.174414 C 1046.395877 47.502539 1046.046919 38.059831 1046.046919 38.059831 C 1046.046919 38.059831 1051.536502 47.820248 1051.88546 48.398373 C 1052.234419 48.971289 1056.286502 55.637956 1056.286502 55.637956 L 1068.567753 55.986915 C 1068.567753 55.986915 1069.843795 7.658788 1069.427128 7.565038 C 1064.322961 6.382746 1061.041711 6.674413 1061.041711 6.674413 C 1061.041711 6.674413 1059.604211 6.736913 1059.442752 7.148371 Z M 1096.416712 29.481705 C 1096.161504 32.002539 1095.968796 40.742122 1094.562546 40.835872 C 1094.562546 40.835872 1093.255254 41.346289 1093.255254 41.283789 C 1093.255254 41.190039 1086.557337 41.762956 1085.89067 41.190039 L 1085.026087 40.038997 L 1084.45317 36.752539 C 1084.45317 36.752539 1083.781295 29.065039 1084.39067 28.143163 C 1084.39067 28.143163 1085.697962 26.867122 1092.458379 26.867122 C 1095.296921 26.867122 1096.640671 26.960872 1096.416712 29.481705 Z M 1108.026088 8.492121 C 1090.447962 4.757746 1078.614628 8.492121 1078.614628 8.492121 L 1076.479212 10.658788 C 1073.64067 29.288997 1078.869837 50.533789 1078.869837 50.533789 L 1079.474003 52.736915 C 1086.718795 59.882748 1102.093796 55.382748 1102.093796 55.476498 C 1102.093796 55.575456 1104.838588 52.830665 1104.838588 52.830665 C 1112.33338 36.049414 1109.27088 10.085871 1109.27088 10.085871 Z M 1126.20838 51.554623 C 1126.20838 51.268164 1126.20838 51.012956 1126.046922 50.757748 C 1125.250047 48.940039 1123.817755 48.585873 1121.838588 48.585873 C 1119.479213 48.585873 1115.58338 49.606706 1115.58338 52.320248 C 1115.58338 54.778581 1118.328172 56.278581 1120.500047 56.278581 C 1122.859422 56.278581 1126.20838 53.945248 1126.20838 51.554623 Z M 1157.30734 37.424414 C 1157.30734 37.424414 1156.286507 43.294206 1157.692757 45.747331 L 1169.656299 44.538998 L 1167.802132 54.424415 C 1167.802132 54.424415 1177.375049 55.320248 1177.244841 55.288998 L 1178.458382 54.268165 L 1179.479216 45.236914 C 1179.479216 45.236914 1185.031299 45.049414 1185.031299 45.143164 C 1185.031299 45.205664 1185.796924 42.174414 1185.156299 37.424414 C 1185.156299 37.424414 1180.276091 37.934831 1180.244841 37.966081 C 1180.182341 38.059831 1183.020883 7.085871 1183.020883 7.085871 C 1166.49484 6.033788 1151.630256 8.778579 1151.630256 8.778579 L 1150.229215 26.960872 L 1151.343798 27.820247 L 1170.770882 27.34108 C 1170.770882 27.34108 1171.218799 27.981705 1171.312549 28.143163 L 1170.260465 36.018164 Z M 1157.30734 37.424414 " stroke="#090042" stroke-width="4.899952" stroke-opacity="1" stroke-miterlimit="4"/><g fill="#5ce1e6" fill-opacity="1"><g transform="translate(9.832031, 45.16997)"><g><path d="M 19.449219 -28.160156 L 14.117188 -35.382812 C 11.246094 -36.941406 5.742188 -36.246094 5.742188 -36.246094 L 4.546875 -35.886719 C 4.546875 -35.886719 3.921875 -11.148438 4.714844 -0.859375 L 5.527344 0.238281 L 13.253906 0.742188 L 14.019531 0.503906 C 14.019531 0.503906 14.164062 -4.617188 14.140625 -5.121094 C 14.140625 -5.644531 13.875 -14.378906 13.875 -14.378906 L 18.710938 -7.703125 L 23.996094 -11.652344 L 24.1875 0.71875 L 30.765625 0.261719 C 30.765625 0.261719 31.722656 -33.828125 31.414062 -33.902344 C 27.585938 -34.785156 24.402344 -34.570312 24.402344 -34.570312 L 23.207031 -34.210938 Z M 19.449219 -28.160156 "/></g></g></g><g fill="#5ce1e6" fill-opacity="1"><g transform="translate(44.402033, 45.16997)"><g><path d="M 4.042969 -35.359375 C 2.917969 -24.09375 1.890625 -13.949219 1.292969 -1.699219 L 2.105469 -0.789062 L 13.613281 -0.214844 L 13.972656 -7.585938 L 18.300781 -7.296875 C 19.210938 -1.003906 19.019531 -2.105469 19.449219 -0.550781 C 21.4375 -0.476562 24.570312 -0.597656 26.292969 -0.597656 C 25.144531 -12.609375 23.421875 -23.445312 22.035156 -35.410156 C 19.714844 -35.625 10 -36.820312 4.042969 -35.359375 Z M 12.609375 -13.707031 L 12.488281 -20.71875 C 12.488281 -20.71875 12.320312 -21.460938 18.039062 -21.054688 L 18.519531 -13.375 Z M 12.609375 -13.707031 "/></g></g></g><g fill="#5ce1e6" fill-opacity="1"><g transform="translate(72.081959, 45.16997)"><g><path d="M 2.058594 -15.074219 C 2.632812 -15.121094 7.320312 -15.238281 10.046875 -15.359375 C 10.070312 -9.878906 10.167969 -5.429688 10.453125 -1.816406 L 11.269531 -0.71875 L 17.128906 -0.214844 C 17.128906 -0.214844 17.34375 -7.464844 17.535156 -15.742188 C 22.25 -15.980469 24.355469 -16.222656 26.722656 -16.363281 C 27.203125 -19.402344 26.484375 -33.136719 26.316406 -35.359375 C 22.152344 -35.839844 6.003906 -37.105469 1.84375 -36.582031 C 1.84375 -36.582031 0.285156 -23.183594 2.058594 -15.074219 Z M 2.058594 -15.074219 "/></g></g></g><g fill="#5ce1e6" fill-opacity="1"><g transform="translate(100.120738, 45.16997)"><g><path d="M 2.058594 -15.074219 C 2.632812 -15.121094 7.320312 -15.238281 10.046875 -15.359375 C 10.070312 -9.878906 10.167969 -5.429688 10.453125 -1.816406 L 11.269531 -0.71875 L 17.128906 -0.214844 C 17.128906 -0.214844 17.34375 -7.464844 17.535156 -15.742188 C 22.25 -15.980469 24.355469 -16.222656 26.722656 -16.363281 C 27.203125 -19.402344 26.484375 -33.136719 26.316406 -35.359375 C 22.152344 -35.839844 6.003906 -37.105469 1.84375 -36.582031 C 1.84375 -36.582031 0.285156 -23.183594 2.058594 -15.074219 Z M 2.058594 -15.074219 "/></g></g></g><g fill="#5ce1e6" fill-opacity="1"><g transform="translate(128.159517, 45.16997)"><g><path d="M 4.425781 -34.070312 C 4.425781 -34.070312 4.855469 -1.316406 4.929688 -1.269531 C 4.953125 -1.242188 6.027344 -0.8125 6.101562 -0.789062 C 6.171875 -0.765625 12.894531 -0.476562 12.894531 -0.476562 C 12.824219 -0.476562 13.421875 -13.660156 13.421875 -13.660156 C 13.421875 -13.660156 17.96875 -13.78125 17.96875 -13.707031 C 17.96875 -13.636719 18.445312 -1.101562 18.445312 -0.71875 C 18.445312 -0.335938 28.328125 0 28.328125 0 L 27.824219 -35.289062 C 24.59375 -37.082031 16.84375 -36.007812 16.84375 -36.007812 L 16.507812 -25.625 L 16.386719 -21.84375 L 11.53125 -21.675781 C 11.53125 -21.675781 11.125 -22.128906 11.125 -22.25 L 11.269531 -34.570312 C 8.707031 -35.050781 4.425781 -34.070312 4.425781 -34.070312 Z M 4.425781 -34.070312 "/></g></g></g><g fill="#5ce1e6" fill-opacity="1"><g transform="translate(159.49979, 45.16997)"><g><path d="M 27.464844 -26.652344 C 28.6875 -30.40625 27.585938 -35.816406 27.585938 -35.816406 L 26.078125 -35.910156 L 5.550781 -35.382812 C 5.550781 -35.382812 4.664062 -33.46875 4.570312 -31.9375 C 4.472656 -30.40625 4.332031 -6.101562 5.40625 -3.230469 C 5.933594 -1.816406 6.410156 -0.359375 6.9375 -0.238281 C 7.464844 -0.121094 13.542969 0.359375 21.339844 0.285156 C 29.140625 0.214844 27.417969 0.40625 27.417969 0.40625 L 27.179688 -6.386719 C 27.179688 -6.386719 26.054688 -7.128906 26.101562 -7.082031 C 26.148438 -7.035156 26.773438 -6.984375 26.773438 -6.984375 L 15.097656 -7.082031 L 14.5 -7.726562 L 14.664062 -13.78125 C 22.464844 -13.851562 26.460938 -14.140625 26.460938 -14.140625 L 26.460938 -17.105469 C 26.460938 -17.105469 26.054688 -19.523438 26.101562 -19.472656 C 26.148438 -19.425781 23.183594 -19.378906 23.183594 -19.378906 L 16.988281 -19.355469 C 15.933594 -22.320312 16.222656 -25.957031 16.222656 -25.957031 C 25.886719 -26.4375 27.464844 -26.652344 27.464844 -26.652344 Z M 27.464844 -26.652344 "/></g></g></g><g fill="#5ce1e6" fill-opacity="1"><g transform="translate(191.390319, 45.16997)"><g><path d="M 15.335938 -19.1875 L 13.804688 -16.386719 L 11.246094 -11.652344 L 10.574219 -35.503906 L 3.996094 -35.289062 C 3.996094 -35.289062 3.039062 -1.195312 3.347656 -1.125 C 7.175781 -0.238281 9.878906 -0.695312 9.878906 -0.695312 L 11.078125 -1.050781 L 14.832031 -8.78125 L 20.648438 -0.359375 C 23.519531 1.195312 29.019531 0.503906 29.019531 0.503906 L 30.214844 0.144531 C 30.214844 0.144531 30.839844 -24.59375 30.050781 -34.882812 L 29.234375 -35.984375 L 21.507812 -36.246094 L 20.742188 -36.007812 C 20.742188 -36.007812 20.621094 -31.125 20.621094 -30.625 C 20.597656 -30.097656 20.886719 -11.820312 20.886719 -11.820312 Z M 15.335938 -19.1875 "/></g></g></g><g fill="#5ce1e6" fill-opacity="1"><g transform="translate(224.405263, 45.16997)"><g/></g></g><g fill="#5ce1e6" fill-opacity="1"><g transform="translate(239.142369, 45.16997)"><g><path d="M 3.039062 -36.101562 C 3.039062 -36.101562 1.21875 -23.039062 2.871094 -10.121094 C 3.398438 -5.886719 4.332031 -1.652344 5.789062 2.082031 C 5.789062 2.082031 19.402344 0.957031 25.359375 0.238281 L 25.242188 -8.683594 C 20.648438 -8.707031 19.976562 -8.421875 15.695312 -8.421875 C 15.238281 -8.421875 10.71875 -8.542969 10.359375 -9.089844 C 10.167969 -9.5 9.402344 -12.488281 9.402344 -12.488281 C 9.402344 -12.488281 9.1875 -13.996094 10.121094 -15.3125 C 10.933594 -16.484375 25.933594 -16.078125 27.296875 -16.363281 C 27.035156 -15.789062 27.824219 -20.40625 27.824219 -20.40625 C 27.824219 -22.5625 27.679688 -32.65625 27.511719 -34.882812 C 23.351562 -35.359375 7.203125 -36.628906 3.039062 -36.101562 Z M 3.039062 -36.101562 "/></g></g></g><g fill="#5ce1e6" fill-opacity="1"><g transform="translate(269.334308, 45.16997)"><g><path d="M 18.160156 -19.140625 C 17.96875 -17.25 17.824219 -10.695312 16.769531 -10.621094 C 16.769531 -10.621094 15.789062 -10.238281 15.789062 -10.289062 C 15.789062 -10.359375 10.765625 -9.929688 10.261719 -10.359375 L 9.617188 -11.21875 L 9.1875 -13.683594 C 9.1875 -13.683594 8.683594 -19.449219 9.140625 -20.144531 C 9.140625 -20.144531 10.121094 -21.101562 15.191406 -21.101562 C 17.320312 -21.101562 18.328125 -21.03125 18.160156 -19.140625 Z M 26.867188 -34.882812 C 13.683594 -37.679688 4.808594 -34.882812 4.808594 -34.882812 L 3.207031 -33.253906 C 1.078125 -19.28125 5 -3.347656 5 -3.347656 L 5.453125 -1.699219 C 10.886719 3.660156 22.417969 0.285156 22.417969 0.359375 C 22.417969 0.429688 24.476562 -1.625 24.476562 -1.625 C 30.097656 -14.210938 27.800781 -33.6875 27.800781 -33.6875 Z M 26.867188 -34.882812 "/></g></g></g><g fill="#5ce1e6" fill-opacity="1"><g transform="translate(299.909028, 45.16997)"><g><path d="M 27.96875 0.144531 L 28.542969 -3.421875 C 28.542969 -5.574219 28.398438 -11.84375 28.230469 -14.066406 C 24.859375 -14.449219 18.46875 -15.121094 12.105469 -15.167969 C 12.273438 -23.636719 12.417969 -35.3125 12.273438 -35.335938 C 8.445312 -36.222656 5.980469 -36.007812 5.980469 -36.007812 L 4.785156 -35.648438 C 4.785156 -35.648438 4.164062 -11.148438 4.953125 -0.859375 L 5.765625 0.238281 L 27.417969 0.695312 Z M 27.96875 0.144531 "/></g></g></g><g fill="#5ce1e6" fill-opacity="1"><g transform="translate(329.21579, 45.16997)"><g><path d="M 27.96875 0.144531 L 28.542969 -3.421875 C 28.542969 -5.574219 28.398438 -11.84375 28.230469 -14.066406 C 24.859375 -14.449219 18.46875 -15.121094 12.105469 -15.167969 C 12.273438 -23.636719 12.417969 -35.3125 12.273438 -35.335938 C 8.445312 -36.222656 5.980469 -36.007812 5.980469 -36.007812 L 4.785156 -35.648438 C 4.785156 -35.648438 4.164062 -11.148438 4.953125 -0.859375 L 5.765625 0.238281 L 27.417969 0.695312 Z M 27.96875 0.144531 "/></g></g></g><g fill="#5ce1e6" fill-opacity="1"><g transform="translate(358.522552, 45.16997)"><g><path d="M 3.253906 -10.8125 C 1.746094 -8.445312 2.558594 -0.3125 2.558594 -0.3125 C 3.828125 0.046875 12.871094 0.835938 16.269531 -0.335938 C 16.269531 -0.335938 17.152344 -5.765625 16.675781 -8.804688 C 16.03125 -8.851562 13.46875 -8.972656 12.847656 -9.042969 C 12.992188 -14.066406 13.183594 -21.269531 13.253906 -25.480469 C 13.925781 -25.550781 17.035156 -25.671875 17.632812 -25.695312 C 18.109375 -28.734375 17.226562 -36.316406 17.226562 -36.316406 C 13.828125 -37.488281 3.828125 -36.699219 2.558594 -36.339844 C 2.558594 -36.339844 2.75 -24.808594 3.253906 -24.402344 L 3.683594 -24.066406 L 6.867188 -23.972656 C 6.746094 -19.617188 6.84375 -10.789062 6.84375 -10.789062 Z M 3.253906 -10.8125 "/></g></g></g><g fill="#5ce1e6" fill-opacity="1"><g transform="translate(379.40811, 45.16997)"><g><path d="M 21.578125 -15.238281 C 21.578125 -15.238281 19.234375 -21.003906 19.019531 -21.484375 C 18.804688 -21.960938 13.972656 -31.722656 13.972656 -31.722656 L 13.949219 -31.746094 C 10.121094 -32.632812 5.261719 -32.417969 5.261719 -32.417969 L 4.066406 -32.058594 C 4.066406 -32.058594 3.445312 -11.148438 4.234375 -0.859375 L 5.046875 0.238281 L 11.101562 0.503906 L 11.867188 0.261719 C 11.867188 0.261719 12.011719 -4.617188 11.984375 -5.121094 C 11.984375 -5.621094 11.722656 -12.703125 11.722656 -12.703125 C 11.722656 -12.703125 15.839844 -5.382812 16.101562 -4.953125 C 16.363281 -4.523438 19.402344 0.476562 19.402344 0.476562 L 28.613281 0.742188 C 28.613281 0.742188 29.570312 -35.503906 29.257812 -35.574219 C 25.433594 -36.460938 22.96875 -36.246094 22.96875 -36.246094 C 22.96875 -36.246094 21.890625 -36.199219 21.769531 -35.886719 Z M 21.578125 -15.238281 "/></g></g></g><g fill="#5ce1e6" fill-opacity="1"><g transform="translate(410.748395, 45.16997)"><g><path d="M 29.019531 -0.597656 C 29.523438 -0.8125 30.050781 -12.726562 30.050781 -12.726562 L 29.667969 -13.132812 L 9.425781 -14.210938 L 9.761719 -17.5625 C 9.761719 -17.5625 26.007812 -17.441406 26.554688 -17.5625 C 27.082031 -17.65625 26.460938 -35.671875 26.007812 -35.765625 C 24.785156 -36.007812 5.023438 -34.714844 4.59375 -34.378906 C 4.546875 -34.355469 3.921875 -33.496094 3.921875 -33.496094 C 2.800781 -32.011719 2.488281 -12.082031 2.75 -12.082031 C 2.75 -12.082031 6.269531 -11.027344 15.429688 -10.574219 C 15.238281 -9.089844 14.90625 -7.058594 14.90625 -7.058594 C 14.355469 -7.058594 4.28125 -8.445312 4.28125 -8.445312 C 4.210938 -8.398438 3.730469 -7.558594 3.730469 -7.558594 C 3.730469 -7.558594 3.757812 -1.816406 4.140625 -1.078125 Z M 29.019531 -0.597656 "/></g></g></g><g fill="#5ce1e6" fill-opacity="1"><g transform="translate(442.351848, 45.16997)"><g/></g></g><g fill="#5ce1e6" fill-opacity="1"><g transform="translate(457.088953, 45.16997)"><g><path d="M 17.058594 -14.257812 C 17.058594 -14.257812 17.128906 -19.617188 17.203125 -22.203125 C 17.203125 -22.203125 1.507812 -22.011719 1.507812 -21.960938 C 1.507812 -21.867188 1.53125 -15.40625 1.53125 -15.40625 L 2.488281 -15 Z M 17.058594 -14.257812 "/></g></g></g><g fill="#5ce1e6" fill-opacity="1"><g transform="translate(475.821328, 45.16997)"><g/></g></g><g fill="#5ce1e6" fill-opacity="1"><g transform="translate(490.558434, 45.16997)"><g><path d="M 17.441406 -24.785156 C 17.441406 -24.785156 18.015625 -20.910156 17.464844 -18.519531 C 17.464844 -18.519531 12.894531 -17.992188 12.203125 -18.0625 C 11.507812 -17.992188 10.097656 -18.277344 10.097656 -18.277344 C 10.097656 -18.277344 9.808594 -19.976562 9.855469 -20.621094 C 9.785156 -21.269531 10.097656 -24.667969 10.097656 -24.667969 Z M 11.292969 -12.609375 C 14.761719 -12.320312 16.960938 -11.628906 27.15625 -12.394531 C 27.585938 -17.800781 28.445312 -28.972656 27.585938 -35.503906 C 27.585938 -35.503906 18.902344 -37.25 11.195312 -36.316406 C 10.289062 -36.199219 6.363281 -35.410156 5.453125 -35.074219 L 4.1875 -33.828125 C 4.1875 -33.828125 4.664062 -18.46875 5.070312 -0.597656 L 10.261719 -0.238281 L 11.292969 -0.742188 Z M 11.292969 -12.609375 "/></g></g></g><g fill="#5ce1e6" fill-opacity="1"><g transform="translate(520.295813, 45.16997)"><g><path d="M 18.160156 -19.140625 C 17.96875 -17.25 17.824219 -10.695312 16.769531 -10.621094 C 16.769531 -10.621094 15.789062 -10.238281 15.789062 -10.289062 C 15.789062 -10.359375 10.765625 -9.929688 10.261719 -10.359375 L 9.617188 -11.21875 L 9.1875 -13.683594 C 9.1875 -13.683594 8.683594 -19.449219 9.140625 -20.144531 C 9.140625 -20.144531 10.121094 -21.101562 15.191406 -21.101562 C 17.320312 -21.101562 18.328125 -21.03125 18.160156 -19.140625 Z M 26.867188 -34.882812 C 13.683594 -37.679688 4.808594 -34.882812 4.808594 -34.882812 L 3.207031 -33.253906 C 1.078125 -19.28125 5 -3.347656 5 -3.347656 L 5.453125 -1.699219 C 10.886719 3.660156 22.417969 0.285156 22.417969 0.359375 C 22.417969 0.429688 24.476562 -1.625 24.476562 -1.625 C 30.097656 -14.210938 27.800781 -33.6875 27.800781 -33.6875 Z M 26.867188 -34.882812 "/></g></g></g><g fill="#5ce1e6" fill-opacity="1"><g transform="translate(550.870534, 45.16997)"><g><path d="M 24.761719 -13.734375 C 27.394531 -18.328125 28.445312 -29.5 27.585938 -35.984375 C 27.585938 -35.984375 17.703125 -37.25 10 -36.316406 C 9.089844 -36.199219 6.363281 -35.886719 5.453125 -35.550781 L 4.1875 -34.308594 C 4.1875 -34.308594 4.664062 -18.46875 5.070312 -0.597656 L 10.261719 -0.238281 L 11.292969 -0.742188 L 11.292969 -12.609375 C 12.992188 -12.464844 14.378906 -12.226562 16.507812 -12.105469 L 24.164062 0.261719 C 24.140625 0.285156 24.929688 0.335938 24.976562 0.382812 L 25.097656 0.3125 L 27.894531 -1.292969 C 29.570312 -2.65625 30.503906 -3.898438 32.128906 -5.429688 C 30.597656 -7.824219 24.761719 -13.734375 24.761719 -13.734375 Z M 17.441406 -24.785156 C 17.441406 -24.785156 18.015625 -20.910156 17.464844 -18.519531 C 17.464844 -18.519531 12.894531 -17.992188 12.203125 -18.0625 C 11.507812 -17.992188 10.097656 -18.277344 10.097656 -18.277344 C 10.097656 -18.277344 9.808594 -19.976562 9.855469 -20.621094 C 9.785156 -21.269531 10.097656 -24.667969 10.097656 -24.667969 Z M 17.441406 -24.785156 "/></g></g></g><g fill="#5ce1e6" fill-opacity="1"><g transform="translate(583.311282, 45.16997)"><g><path d="M 12.585938 -0.550781 L 11.867188 -12.800781 L 12.273438 -13.78125 C 20.074219 -13.851562 25.503906 -14.140625 25.503906 -14.140625 L 25.503906 -17.105469 C 25.503906 -17.105469 25.097656 -19.523438 25.144531 -19.472656 C 25.191406 -19.425781 22.226562 -19.378906 22.226562 -19.378906 L 16.03125 -19.355469 C 14.976562 -22.320312 15.265625 -25.957031 15.265625 -25.957031 C 24.929688 -26.4375 26.507812 -26.652344 26.507812 -26.652344 C 27.730469 -30.40625 26.628906 -35.816406 26.628906 -35.816406 L 25.121094 -35.910156 L 4.59375 -35.382812 C 4.59375 -35.382812 3.707031 -33.46875 3.613281 -31.9375 C 3.515625 -30.40625 4.761719 0 4.761719 0 L 11.890625 0.0234375 Z M 12.585938 -0.550781 "/></g></g></g><g fill="#5ce1e6" fill-opacity="1"><g transform="translate(613.263949, 45.16997)"><g><path d="M 18.160156 -19.140625 C 17.96875 -17.25 17.824219 -10.695312 16.769531 -10.621094 C 16.769531 -10.621094 15.789062 -10.238281 15.789062 -10.289062 C 15.789062 -10.359375 10.765625 -9.929688 10.261719 -10.359375 L 9.617188 -11.21875 L 9.1875 -13.683594 C 9.1875 -13.683594 8.683594 -19.449219 9.140625 -20.144531 C 9.140625 -20.144531 10.121094 -21.101562 15.191406 -21.101562 C 17.320312 -21.101562 18.328125 -21.03125 18.160156 -19.140625 Z M 26.867188 -34.882812 C 13.683594 -37.679688 4.808594 -34.882812 4.808594 -34.882812 L 3.207031 -33.253906 C 1.078125 -19.28125 5 -3.347656 5 -3.347656 L 5.453125 -1.699219 C 10.886719 3.660156 22.417969 0.285156 22.417969 0.359375 C 22.417969 0.429688 24.476562 -1.625 24.476562 -1.625 C 30.097656 -14.210938 27.800781 -33.6875 27.800781 -33.6875 Z M 26.867188 -34.882812 "/></g></g></g><g fill="#5ce1e6" fill-opacity="1"><g transform="translate(643.838669, 45.16997)"><g><path d="M 27.96875 0.144531 L 28.542969 -3.421875 C 28.542969 -5.574219 28.398438 -11.84375 28.230469 -14.066406 C 24.859375 -14.449219 18.46875 -15.121094 12.105469 -15.167969 C 12.273438 -23.636719 12.417969 -35.3125 12.273438 -35.335938 C 8.445312 -36.222656 5.980469 -36.007812 5.980469 -36.007812 L 4.785156 -35.648438 C 4.785156 -35.648438 4.164062 -11.148438 4.953125 -0.859375 L 5.765625 0.238281 L 27.417969 0.695312 Z M 27.96875 0.144531 "/></g></g></g><g fill="#5ce1e6" fill-opacity="1"><g transform="translate(673.145431, 45.16997)"><g><path d="M 3.253906 -10.8125 C 1.746094 -8.445312 2.558594 -0.3125 2.558594 -0.3125 C 3.828125 0.046875 12.871094 0.835938 16.269531 -0.335938 C 16.269531 -0.335938 17.152344 -5.765625 16.675781 -8.804688 C 16.03125 -8.851562 13.46875 -8.972656 12.847656 -9.042969 C 12.992188 -14.066406 13.183594 -21.269531 13.253906 -25.480469 C 13.925781 -25.550781 17.035156 -25.671875 17.632812 -25.695312 C 18.109375 -28.734375 17.226562 -36.316406 17.226562 -36.316406 C 13.828125 -37.488281 3.828125 -36.699219 2.558594 -36.339844 C 2.558594 -36.339844 2.75 -24.808594 3.253906 -24.402344 L 3.683594 -24.066406 L 6.867188 -23.972656 C 6.746094 -19.617188 6.84375 -10.789062 6.84375 -10.789062 Z M 3.253906 -10.8125 "/></g></g></g><g fill="#5ce1e6" fill-opacity="1"><g transform="translate(694.030989, 45.16997)"><g><path d="M 18.160156 -19.140625 C 17.96875 -17.25 17.824219 -10.695312 16.769531 -10.621094 C 16.769531 -10.621094 15.789062 -10.238281 15.789062 -10.289062 C 15.789062 -10.359375 10.765625 -9.929688 10.261719 -10.359375 L 9.617188 -11.21875 L 9.1875 -13.683594 C 9.1875 -13.683594 8.683594 -19.449219 9.140625 -20.144531 C 9.140625 -20.144531 10.121094 -21.101562 15.191406 -21.101562 C 17.320312 -21.101562 18.328125 -21.03125 18.160156 -19.140625 Z M 26.867188 -34.882812 C 13.683594 -37.679688 4.808594 -34.882812 4.808594 -34.882812 L 3.207031 -33.253906 C 1.078125 -19.28125 5 -3.347656 5 -3.347656 L 5.453125 -1.699219 C 10.886719 3.660156 22.417969 0.285156 22.417969 0.359375 C 22.417969 0.429688 24.476562 -1.625 24.476562 -1.625 C 30.097656 -14.210938 27.800781 -33.6875 27.800781 -33.6875 Z M 26.867188 -34.882812 "/></g></g></g><g fill="#5ce1e6" fill-opacity="1"><g transform="translate(724.60571, 45.16997)"><g/></g></g><g fill="#5ce1e6" fill-opacity="1"><g transform="translate(739.342816, 45.16997)"><g><path d="M 17.058594 -14.257812 C 17.058594 -14.257812 17.128906 -19.617188 17.203125 -22.203125 C 17.203125 -22.203125 1.507812 -22.011719 1.507812 -21.960938 C 1.507812 -21.867188 1.53125 -15.40625 1.53125 -15.40625 L 2.488281 -15 Z M 17.058594 -14.257812 "/></g></g></g><g fill="#5ce1e6" fill-opacity="1"><g transform="translate(758.075191, 45.16997)"><g/></g></g><g fill="#5ce1e6" fill-opacity="1"><g transform="translate(772.812296, 45.16997)"><g><path d="M 21.578125 -15.238281 C 21.578125 -15.238281 19.234375 -21.003906 19.019531 -21.484375 C 18.804688 -21.960938 13.972656 -31.722656 13.972656 -31.722656 L 13.949219 -31.746094 C 10.121094 -32.632812 5.261719 -32.417969 5.261719 -32.417969 L 4.066406 -32.058594 C 4.066406 -32.058594 3.445312 -11.148438 4.234375 -0.859375 L 5.046875 0.238281 L 11.101562 0.503906 L 11.867188 0.261719 C 11.867188 0.261719 12.011719 -4.617188 11.984375 -5.121094 C 11.984375 -5.621094 11.722656 -12.703125 11.722656 -12.703125 C 11.722656 -12.703125 15.839844 -5.382812 16.101562 -4.953125 C 16.363281 -4.523438 19.402344 0.476562 19.402344 0.476562 L 28.613281 0.742188 C 28.613281 0.742188 29.570312 -35.503906 29.257812 -35.574219 C 25.433594 -36.460938 22.96875 -36.246094 22.96875 -36.246094 C 22.96875 -36.246094 21.890625 -36.199219 21.769531 -35.886719 Z M 21.578125 -15.238281 "/></g></g></g><g fill="#5ce1e6" fill-opacity="1"><g transform="translate(804.152581, 45.16997)"><g><path d="M 18.160156 -19.140625 C 17.96875 -17.25 17.824219 -10.695312 16.769531 -10.621094 C 16.769531 -10.621094 15.789062 -10.238281 15.789062 -10.289062 C 15.789062 -10.359375 10.765625 -9.929688 10.261719 -10.359375 L 9.617188 -11.21875 L 9.1875 -13.683594 C 9.1875 -13.683594 8.683594 -19.449219 9.140625 -20.144531 C 9.140625 -20.144531 10.121094 -21.101562 15.191406 -21.101562 C 17.320312 -21.101562 18.328125 -21.03125 18.160156 -19.140625 Z M 26.867188 -34.882812 C 13.683594 -37.679688 4.808594 -34.882812 4.808594 -34.882812 L 3.207031 -33.253906 C 1.078125 -19.28125 5 -3.347656 5 -3.347656 L 5.453125 -1.699219 C 10.886719 3.660156 22.417969 0.285156 22.417969 0.359375 C 22.417969 0.429688 24.476562 -1.625 24.476562 -1.625 C 30.097656 -14.210938 27.800781 -33.6875 27.800781 -33.6875 Z M 26.867188 -34.882812 "/></g></g></g><g fill="#5ce1e6" fill-opacity="1"><g transform="translate(834.727256, 45.16997)"><g><path d="M 9.929688 -2.582031 C 9.929688 -2.800781 9.929688 -2.992188 9.808594 -3.183594 C 9.210938 -4.546875 8.132812 -4.808594 6.652344 -4.808594 C 4.878906 -4.808594 1.960938 -4.042969 1.960938 -2.007812 C 1.960938 -0.167969 4.019531 0.957031 5.644531 0.957031 C 7.417969 0.957031 9.929688 -0.789062 9.929688 -2.582031 Z M 9.929688 -2.582031 "/></g></g></g><g fill="#5ce1e6" fill-opacity="1"><g transform="translate(846.713156, 45.16997)"><g/></g></g><g fill="#5ce1e6" fill-opacity="1"><g transform="translate(861.450216, 45.16997)"><g><path d="M 6.53125 -13.183594 C 6.53125 -13.183594 5.765625 -8.78125 6.820312 -6.9375 L 15.789062 -7.847656 L 14.402344 -0.429688 C 14.402344 -0.429688 21.578125 0.238281 21.484375 0.214844 L 22.394531 -0.550781 L 23.160156 -7.320312 C 23.160156 -7.320312 27.320312 -7.464844 27.320312 -7.394531 C 27.320312 -7.34375 27.894531 -9.617188 27.417969 -13.183594 C 27.417969 -13.183594 23.757812 -12.800781 23.734375 -12.777344 C 23.683594 -12.703125 25.816406 -35.933594 25.816406 -35.933594 C 13.421875 -36.722656 2.273438 -34.667969 2.273438 -34.667969 L 1.21875 -21.03125 L 2.058594 -20.382812 L 16.628906 -20.742188 C 16.628906 -20.742188 16.960938 -20.265625 17.035156 -20.144531 L 16.246094 -14.234375 Z M 6.53125 -13.183594 "/></g></g></g></svg>