<svg xmlns="http://www.w3.org/2000/svg" xmlns:xlink="http://www.w3.org/1999/xlink" width="1200" zoomAndPan="magnify" viewBox="0 0 900 225" height="300" preserveAspectRatio="xMidYMid meet" version="1.0"><defs><g/></defs><path stroke-linecap="butt" transform="matrix(0.75, 0, 0, 0.75, -5.126966, -46.646386)" fill="none" stroke-linejoin="miter" d="M 29.091164 18.226432 L 22.122414 8.788931 C 18.372413 6.757681 11.184913 7.663931 11.184913 7.663931 L 9.622413 8.132681 C 9.622413 8.132681 8.809913 40.439974 9.841163 53.877475 L 10.903663 55.314975 L 20.997413 55.966017 L 21.997414 55.658725 C 21.997414 55.658725 22.184914 48.971225 22.153664 48.314975 C 22.153664 47.627475 21.809914 36.221224 21.809914 36.221224 L 28.122414 44.939974 L 35.028664 39.783724 L 35.278664 55.934767 L 43.867206 55.346225 C 43.867206 55.346225 45.117206 10.820181 44.710956 10.726431 C 39.710956 9.570181 35.559914 9.851431 35.559914 9.851431 L 33.997414 10.320181 Z M 54.111998 8.820181 C 52.643248 23.533724 51.299498 36.783724 50.518248 52.783725 L 51.580748 53.971225 L 66.611999 54.721225 L 67.080749 45.096224 L 72.736999 45.471224 C 73.924499 53.689975 73.674499 52.252475 74.236999 54.283725 C 76.830749 54.377475 80.919291 54.221225 83.169291 54.221225 C 81.669291 38.533724 79.419291 24.377474 77.611999 8.757681 C 74.580749 8.476431 61.893249 6.913931 54.111998 8.820181 Z M 65.299499 37.096224 L 65.143249 27.939974 C 65.143249 27.939974 64.924499 26.971224 72.393249 27.502474 L 73.018249 37.533724 Z M 87.669291 35.314974 C 88.419291 35.252474 94.539083 35.096224 98.101583 34.939974 C 98.132833 42.096224 98.257833 47.908725 98.632833 52.627475 L 99.695333 54.064975 L 107.351584 54.721225 C 107.351584 54.721225 107.632834 45.252474 107.882834 34.439974 C 114.039084 34.127474 116.789084 33.814974 119.882834 33.627474 C 120.507834 29.658724 119.570334 11.726431 119.351584 8.820181 C 113.914084 8.195181 92.820333 6.538931 87.388041 7.226431 C 87.388041 7.226431 85.356791 24.721224 87.669291 35.314974 Z M 124.283876 35.314974 C 125.033876 35.252474 131.158876 35.096224 134.721377 34.939974 C 134.752627 42.096224 134.877627 47.908725 135.252627 52.627475 L 136.315127 54.064975 L 143.966169 54.721225 C 143.966169 54.721225 144.247419 45.252474 144.497419 34.439974 C 150.653669 34.127474 153.403669 33.814974 156.497419 33.627474 C 157.122419 29.658724 156.184919 11.726431 155.966169 8.820181 C 150.528669 8.195181 129.440126 6.538931 124.002626 7.226431 C 124.002626 7.226431 121.971376 24.721224 124.283876 35.314974 Z M 163.992211 10.507681 C 163.992211 10.507681 164.554711 53.283725 164.648461 53.346225 C 164.679711 53.377475 166.085961 53.939975 166.179711 53.971225 C 166.273461 54.002475 175.054712 54.377475 175.054712 54.377475 C 174.960962 54.377475 175.742212 37.158724 175.742212 37.158724 C 175.742212 37.158724 181.679712 37.002474 181.679712 37.096224 C 181.679712 37.189974 182.304712 53.564975 182.304712 54.064975 C 182.304712 54.564975 195.205754 55.002475 195.205754 55.002475 L 194.549504 8.913931 C 190.330754 6.570181 180.210962 7.976431 180.210962 7.976431 L 179.773462 21.538932 L 179.617212 26.471224 L 173.273461 26.689974 C 173.273461 26.689974 172.742211 26.096224 172.742211 25.939974 L 172.929711 9.851431 C 169.585961 9.226431 163.992211 10.507681 163.992211 10.507681 Z M 235.007839 20.195182 C 236.601589 15.288932 235.164089 8.226431 235.164089 8.226431 L 233.195339 8.101431 L 206.388046 8.788931 C 206.388046 8.788931 205.231796 11.288931 205.106796 13.288931 C 204.981796 15.288932 204.794296 47.033725 206.200546 50.783725 C 206.888046 52.627475 207.513046 54.533725 208.200546 54.689975 C 208.888046 54.846225 216.825547 55.471225 227.007839 55.377475 C 237.195339 55.283725 234.945339 55.533725 234.945339 55.533725 L 234.632839 46.658724 C 234.632839 46.658724 233.164089 45.689974 233.226589 45.752474 C 233.289089 45.814974 234.101589 45.877474 234.101589 45.877474 L 218.856797 45.752474 L 218.075547 44.908724 L 218.294297 37.002474 C 228.476589 36.908724 233.695339 36.533724 233.695339 36.533724 L 233.695339 32.658724 C 233.695339 32.658724 233.164089 29.502474 233.226589 29.564974 C 233.289089 29.627474 229.414089 29.689974 229.414089 29.689974 L 221.325547 29.721224 C 219.950547 25.846224 220.325547 21.101432 220.325547 21.101432 C 232.945339 20.476432 235.007839 20.195182 235.007839 20.195182 Z M 260.815132 29.939974 L 258.815132 33.596224 L 255.471382 39.783724 L 254.596382 8.632681 L 246.002631 8.913931 C 246.002631 8.913931 244.752631 53.439975 245.158881 53.533725 C 250.158881 54.689975 253.690132 54.096225 253.690132 54.096225 L 255.252632 53.627475 L 260.158882 43.533724 L 267.752632 54.533725 C 271.497424 56.559767 278.684924 55.658725 278.684924 55.658725 L 280.247424 55.189975 C 280.247424 55.189975 281.059924 22.877473 280.028674 9.445181 L 278.966174 8.007681 L 268.877632 7.663931 L 267.877632 7.976431 C 267.877632 7.976431 267.721382 14.351431 267.721382 15.007682 C 267.690132 15.695182 268.065132 39.564974 268.065132 39.564974 Z M 307.112009 7.851431 C 307.112009 7.851431 304.737009 24.908724 306.893259 41.783724 C 307.580759 47.314975 308.799509 52.846225 310.705759 57.716017 C 310.705759 57.716017 328.48701 56.247267 336.263052 55.314975 L 336.106802 43.658724 C 330.11201 43.627474 329.23701 44.002474 323.643259 44.002474 C 323.049509 44.002474 317.143259 43.846224 316.674509 43.127474 C 316.424509 42.596224 315.424509 38.689974 315.424509 38.689974 C 315.424509 38.689974 315.143259 36.721224 316.362009 35.002474 C 317.424509 33.471224 337.013052 34.002474 338.794302 33.627474 C 338.450552 34.377474 339.481802 28.346224 339.481802 28.346224 C 339.481802 25.533724 339.294302 12.351431 339.075552 9.445181 C 333.64326 8.820181 312.549509 7.163931 307.112009 7.851431 Z M 366.289095 30.002474 C 366.039095 32.471224 365.851595 41.033724 364.476594 41.127474 C 364.476594 41.127474 363.195344 41.627474 363.195344 41.564974 C 363.195344 41.471224 356.632844 42.033724 355.976594 41.471224 L 355.132844 40.346224 L 354.570344 37.127474 C 354.570344 37.127474 353.914094 29.596224 354.507844 28.689974 C 354.507844 28.689974 355.789094 27.439974 362.414094 27.439974 C 365.195344 27.439974 366.507845 27.533724 366.289095 30.002474 Z M 377.664095 9.445181 C 360.445344 5.788931 348.851594 9.445181 348.851594 9.445181 L 346.757844 11.570181 C 343.981802 29.814974 349.101594 50.627475 349.101594 50.627475 L 349.695344 52.783725 C 356.789094 59.778517 371.851595 55.377475 371.851595 55.471225 C 371.851595 55.564975 374.539095 52.877475 374.539095 52.877475 C 381.877637 36.439974 378.882845 11.007681 378.882845 11.007681 Z M 419.02868 55.189975 L 419.77868 50.533725 C 419.77868 47.721225 419.59118 39.533724 419.37243 36.627474 C 414.96618 36.127474 406.62243 35.252474 398.309929 35.189974 C 398.528679 24.127474 398.716179 8.882681 398.528679 8.851431 C 393.528679 7.695181 390.309929 7.976431 390.309929 7.976431 L 388.752637 8.445181 C 388.752637 8.445181 387.940137 40.439974 388.971387 53.877475 L 390.028679 55.314975 L 418.30993 55.903517 Z M 457.299515 55.189975 L 458.049515 50.533725 C 458.049515 47.721225 457.862015 39.533724 457.643265 36.627474 C 453.237015 36.127474 444.893264 35.252474 436.580764 35.189974 C 436.799514 24.127474 436.987014 8.882681 436.799514 8.851431 C 431.804722 7.695181 428.585972 7.976431 428.585972 7.976431 L 427.023472 8.445181 C 427.023472 8.445181 426.210972 40.439974 427.242222 53.877475 L 428.304722 55.314975 L 456.580765 55.903517 Z M 463.294307 40.877474 C 461.325557 43.971224 462.388057 54.596225 462.388057 54.596225 C 464.044307 55.064975 475.856807 56.091017 480.294308 54.564975 C 480.294308 54.564975 481.445349 47.471225 480.820349 43.502474 C 479.981808 43.439974 476.638057 43.283724 475.825557 43.189974 C 476.013057 36.627474 476.263057 27.221224 476.356807 21.726432 C 477.231807 21.632682 481.289099 21.476432 482.070349 21.445182 C 482.695349 17.476432 481.539099 7.570181 481.539099 7.570181 C 477.106807 6.038931 464.044307 7.070181 462.388057 7.538931 C 462.388057 7.538931 462.638057 22.596223 463.294307 23.127474 L 463.856807 23.564974 L 468.013057 23.689974 C 467.856807 29.377474 467.981807 40.908724 467.981807 40.908724 Z M 514.502642 35.096224 C 514.502642 35.096224 511.440142 27.564974 511.158892 26.939974 C 510.877642 26.314974 504.565142 13.570181 504.565142 13.570181 L 504.533892 13.538931 C 499.533892 12.382681 493.19535 12.663931 493.19535 12.663931 L 491.63285 13.132681 C 491.63285 13.132681 490.82035 40.439974 491.8516 53.877475 L 492.9141 55.314975 L 500.815142 55.658725 L 501.815142 55.346225 C 501.815142 55.346225 502.002642 48.971225 501.971392 48.314975 C 501.971392 47.658725 501.627642 38.408724 501.627642 38.408724 C 501.627642 38.408724 507.002642 47.971225 507.346392 48.533725 C 507.690142 49.096225 511.658892 55.627475 511.658892 55.627475 L 523.690143 55.966017 C 523.690143 55.966017 524.940143 8.632681 524.533893 8.538931 C 519.533893 7.382681 516.315142 7.663931 516.315142 7.663931 C 516.315142 7.663931 514.908892 7.726431 514.752642 8.132681 Z M 565.148478 54.221225 C 565.804728 53.939975 566.492228 38.377474 566.492228 38.377474 L 565.992228 37.846224 L 539.559935 36.439974 L 539.997435 32.064974 C 539.997435 32.064974 561.210978 32.221224 561.929728 32.064974 C 562.617228 31.939974 561.804728 8.413931 561.210978 8.288931 C 559.617228 7.976431 533.809935 9.663931 533.247435 10.101431 C 533.184935 10.132681 532.372435 11.257681 532.372435 11.257681 C 530.903685 13.195181 530.497435 39.221224 530.841185 39.221224 C 530.841185 39.221224 535.434935 40.596224 547.398477 41.189974 C 547.148477 43.127474 546.710977 45.783724 546.710977 45.783724 C 545.992227 45.783724 532.841185 43.971224 532.841185 43.971224 C 532.747435 44.033724 532.122435 45.127474 532.122435 45.127474 C 532.122435 45.127474 532.153685 52.627475 532.653685 53.596225 Z M 610.039105 36.377474 C 610.039105 36.377474 610.132855 29.377474 610.226605 26.002474 C 610.226605 26.002474 589.731812 26.252474 589.731812 26.314974 C 589.731812 26.439974 589.763062 34.877474 589.763062 34.877474 L 591.013062 35.408724 Z M 656.87244 18.226432 L 649.908898 8.788931 C 646.158898 6.757681 638.971398 7.663931 638.971398 7.663931 L 637.408898 8.132681 C 637.408898 8.132681 636.596397 40.439974 637.627648 53.877475 L 638.690148 55.314975 L 648.783898 55.966017 L 649.783898 55.658725 C 649.783898 55.658725 649.971398 48.971225 649.940148 48.314975 C 649.940148 47.627475 649.596398 36.221224 649.596398 36.221224 L 655.90369 44.939974 L 662.80994 39.783724 L 663.05994 55.934767 L 671.653691 55.346225 C 671.653691 55.346225 672.903691 10.820181 672.497441 10.726431 C 667.49744 9.570181 663.34119 9.851431 663.34119 9.851431 L 661.77869 10.320181 Z M 681.898483 8.820181 C 680.429733 23.533724 679.085983 36.783724 678.304733 52.783725 L 679.367233 53.971225 L 694.393275 54.721225 L 694.862025 45.096224 L 700.518275 45.471224 C 701.705775 53.689975 701.455775 52.252475 702.018275 54.283725 C 704.612025 54.377475 708.705775 54.221225 710.955776 54.221225 C 709.455776 38.533724 707.205775 24.377474 705.393275 8.757681 C 702.362025 8.476431 689.679733 6.913931 681.898483 8.820181 Z M 693.080775 37.096224 L 692.924525 27.939974 C 692.924525 27.939974 692.705775 26.971224 700.174525 27.502474 L 700.799525 37.533724 Z M 715.450567 35.314974 C 716.200567 35.252474 722.325568 35.096224 725.888068 34.939974 C 725.919318 42.096224 726.044318 47.908725 726.419318 52.627475 L 727.481818 54.064975 L 735.138068 54.721225 C 735.138068 54.721225 735.419318 45.252474 735.669318 34.439974 C 741.82036 34.127474 744.57036 33.814974 747.66411 33.627474 C 748.28911 29.658724 747.35161 11.726431 747.13286 8.820181 C 741.69536 8.195181 720.606818 6.538931 715.169317 7.226431 C 715.169317 7.226431 713.138067 24.721224 715.450567 35.314974 Z M 752.065152 35.314974 C 752.815152 35.252474 758.940153 35.096224 762.502653 34.939974 C 762.533903 42.096224 762.658903 47.908725 763.033903 52.627475 L 764.096403 54.064975 L 771.752653 54.721225 C 771.752653 54.721225 772.033903 45.252474 772.283903 34.439974 C 778.440153 34.127474 781.190153 33.814974 784.283904 33.627474 C 784.903695 29.658724 783.971404 11.726431 783.752654 8.820181 C 778.315153 8.195181 757.221402 6.538931 751.783902 7.226431 C 751.783902 7.226431 749.757861 24.721224 752.065152 35.314974 Z M 791.778696 10.507681 C 791.778696 10.507681 792.341196 53.283725 792.434946 53.346225 C 792.466196 53.377475 793.872446 53.939975 793.966196 53.971225 C 794.059946 54.002475 802.835988 54.377475 802.835988 54.377475 C 802.742238 54.377475 803.523488 37.158724 803.523488 37.158724 C 803.523488 37.158724 809.460988 37.002474 809.460988 37.096224 C 809.460988 37.189974 810.085988 53.564975 810.085988 54.064975 C 810.085988 54.564975 822.992239 55.002475 822.992239 55.002475 L 822.335989 8.913931 C 818.117238 6.570181 807.992238 7.976431 807.992238 7.976431 L 807.554738 21.538932 L 807.398488 26.471224 L 801.054738 26.689974 C 801.054738 26.689974 800.523488 26.096224 800.523488 25.939974 L 800.710988 9.851431 C 797.367237 9.226431 791.778696 10.507681 791.778696 10.507681 Z M 862.794324 20.195182 C 864.388074 15.288932 862.950574 8.226431 862.950574 8.226431 L 860.981823 8.101431 L 834.174531 8.788931 C 834.174531 8.788931 833.018281 11.288931 832.893281 13.288931 C 832.768281 15.288932 832.580781 47.033725 833.987031 50.783725 C 834.674531 52.627475 835.299531 54.533725 835.987031 54.689975 C 836.674531 54.846225 844.606823 55.471225 854.794323 55.377475 C 864.981824 55.283725 862.731824 55.533725 862.731824 55.533725 L 862.419324 46.658724 C 862.419324 46.658724 860.950573 45.689974 861.013073 45.752474 C 861.075573 45.814974 861.888074 45.877474 861.888074 45.877474 L 846.638073 45.752474 L 845.856823 44.908724 L 846.075573 37.002474 C 856.263073 36.908724 861.481824 36.533724 861.481824 36.533724 L 861.481824 32.658724 C 861.481824 32.658724 860.950573 29.502474 861.013073 29.564974 C 861.075573 29.627474 857.200573 29.689974 857.200573 29.689974 L 849.106823 29.721224 C 847.731823 25.846224 848.106823 21.101432 848.106823 21.101432 C 860.731823 20.476432 862.794324 20.195182 862.794324 20.195182 Z M 888.596408 29.939974 L 886.596408 33.596224 L 883.257866 39.783724 L 882.382866 8.632681 L 873.789116 8.913931 C 873.789116 8.913931 872.539116 53.439975 872.945366 53.533725 C 877.945366 54.689975 881.476616 54.096225 881.476616 54.096225 L 883.039116 53.627475 L 887.940158 43.533724 L 895.533908 54.533725 C 899.283908 56.559767 906.471409 55.658725 906.471409 55.658725 L 908.033909 55.189975 C 908.033909 55.189975 908.846409 22.877473 907.815159 9.445181 L 906.752659 8.007681 L 896.658908 7.663931 L 895.658908 7.976431 C 895.658908 7.976431 895.502658 14.351431 895.502658 15.007682 C 895.471408 15.695182 895.846408 39.564974 895.846408 39.564974 Z M 934.898493 7.851431 C 934.898493 7.851431 932.523493 24.908724 934.679743 41.783724 C 935.367243 47.314975 936.585993 52.846225 938.492243 57.716017 C 938.492243 57.716017 956.268286 56.247267 964.049536 55.314975 L 963.893286 43.658724 C 957.893286 43.627474 957.018286 44.002474 951.424536 44.002474 C 950.830786 44.002474 944.929744 43.846224 944.460994 43.127474 C 944.210994 42.596224 943.210994 38.689974 943.210994 38.689974 C 943.210994 38.689974 942.929744 36.721224 944.148494 35.002474 C 945.210994 33.471224 964.799536 34.002474 966.580786 33.627474 C 966.237036 34.377474 967.268286 28.346224 967.268286 28.346224 C 967.268286 25.533724 967.080786 12.351431 966.862036 9.445181 C 961.424536 8.820181 940.335993 7.163931 934.898493 7.851431 Z M 994.070371 30.002474 C 993.820371 32.471224 993.632871 41.033724 992.263079 41.127474 C 992.263079 41.127474 990.981829 41.627474 990.981829 41.564974 C 990.981829 41.471224 984.419329 42.033724 983.763079 41.471224 L 982.919329 40.346224 L 982.356829 37.127474 C 982.356829 37.127474 981.700579 29.596224 982.294329 28.689974 C 982.294329 28.689974 983.575579 27.439974 990.200579 27.439974 C 992.981829 27.439974 994.289121 27.533724 994.070371 30.002474 Z M 1005.445371 9.445181 C 988.231829 5.788931 976.638078 9.445181 976.638078 9.445181 L 974.544328 11.570181 C 971.763078 29.814974 976.888078 50.627475 976.888078 50.627475 L 977.481828 52.783725 C 984.575579 59.778517 999.632871 55.377475 999.632871 55.471225 C 999.632871 55.564975 1002.320371 52.877475 1002.320371 52.877475 C 1009.664121 36.439974 1006.664121 11.007681 1006.664121 11.007681 Z M 1046.809956 55.189975 L 1047.559956 50.533725 C 1047.559956 47.721225 1047.372456 39.533724 1047.153706 36.627474 C 1042.747456 36.127474 1034.408914 35.252474 1026.096414 35.189974 C 1026.315164 24.127474 1026.502664 8.882681 1026.315164 8.851431 C 1021.315163 7.695181 1018.096413 7.976431 1018.096413 7.976431 L 1016.533913 8.445181 C 1016.533913 8.445181 1015.721413 40.439974 1016.752663 53.877475 L 1017.815163 55.314975 L 1046.091206 55.903517 Z M 1085.080791 55.189975 L 1085.830791 50.533725 C 1085.830791 47.721225 1085.643291 39.533724 1085.424541 36.627474 C 1081.023499 36.127474 1072.679749 35.252474 1064.367249 35.189974 C 1064.585999 24.127474 1064.773499 8.882681 1064.585999 8.851431 C 1059.585998 7.695181 1056.367248 7.976431 1056.367248 7.976431 L 1054.804748 8.445181 C 1054.804748 8.445181 1053.992248 40.439974 1055.023498 53.877475 L 1056.085998 55.314975 L 1084.362041 55.903517 Z M 1091.080791 40.877474 C 1089.112041 43.971224 1090.174541 54.596225 1090.174541 54.596225 C 1091.830791 55.064975 1103.638084 56.091017 1108.075584 54.564975 C 1108.075584 54.564975 1109.231834 47.471225 1108.606834 43.502474 C 1107.763084 43.439974 1104.419334 43.283724 1103.606834 43.189974 C 1103.794334 36.627474 1104.044334 27.221224 1104.138084 21.726432 C 1105.013084 21.632682 1109.075584 21.476432 1109.856834 21.445182 C 1110.481834 17.476432 1109.325584 7.570181 1109.325584 7.570181 C 1104.888084 6.038931 1091.830791 7.070181 1090.174541 7.538931 C 1090.174541 7.538931 1090.424541 22.596223 1091.080791 23.127474 L 1091.643291 23.564974 L 1095.794333 23.689974 C 1095.638083 29.377474 1095.763083 40.908724 1095.763083 40.908724 Z M 1142.289127 35.096224 C 1142.289127 35.096224 1139.226627 27.564974 1138.945377 26.939974 C 1138.664127 26.314974 1132.351626 13.570181 1132.351626 13.570181 L 1132.320376 13.538931 C 1127.320376 12.382681 1120.976626 12.663931 1120.976626 12.663931 L 1119.414126 13.132681 C 1119.414126 13.132681 1118.601626 40.439974 1119.632876 53.877475 L 1120.695376 55.314975 L 1128.601626 55.658725 L 1129.601626 55.346225 C 1129.601626 55.346225 1129.789126 48.971225 1129.757876 48.314975 C 1129.757876 47.658725 1129.414126 38.408724 1129.414126 38.408724 C 1129.414126 38.408724 1134.789127 47.971225 1135.132877 48.533725 C 1135.476627 49.096225 1139.445377 55.627475 1139.445377 55.627475 L 1151.471419 55.966017 C 1151.471419 55.966017 1152.721419 8.632681 1152.315169 8.538931 C 1147.315169 7.382681 1144.101627 7.663931 1144.101627 7.663931 C 1144.101627 7.663931 1142.695377 7.726431 1142.539127 8.132681 Z M 1192.929754 54.221225 C 1193.586004 53.939975 1194.273504 38.377474 1194.273504 38.377474 L 1193.773504 37.846224 L 1167.341211 36.439974 L 1167.778711 32.064974 C 1167.778711 32.064974 1188.997462 32.221224 1189.716212 32.064974 C 1190.398504 31.939974 1189.591212 8.413931 1188.997462 8.288931 C 1187.403712 7.976431 1161.591211 9.663931 1161.028711 10.101431 C 1160.966211 10.132681 1160.153711 11.257681 1160.153711 11.257681 C 1158.684961 13.195181 1158.278711 39.221224 1158.622461 39.221224 C 1158.622461 39.221224 1163.216211 40.596224 1175.184962 41.189974 C 1174.934962 43.127474 1174.497462 45.783724 1174.497462 45.783724 C 1173.778712 45.783724 1160.622461 43.971224 1160.622461 43.971224 C 1160.528711 44.033724 1159.903711 45.127474 1159.903711 45.127474 C 1159.903711 45.127474 1159.934961 52.627475 1160.434961 53.596225 Z M 1192.929754 54.221225 " stroke="#000000" stroke-width="4.23996" stroke-opacity="1" stroke-miterlimit="4"/><path stroke-linecap="butt" transform="matrix(0.75, 0, 0, 0.75, 0, 3.839974)" fill="none" stroke-linejoin="miter" d="M 43.322918 54.218579 C 43.979168 53.937329 44.666669 38.380036 44.666669 38.380036 L 44.166669 37.848786 L 17.734376 36.442536 L 18.171876 32.067536 C 18.171876 32.067536 39.385418 32.223786 40.104168 32.067536 C 40.791668 31.942536 39.979168 8.411285 39.385418 8.286285 C 37.791668 7.973785 11.984375 9.661285 11.421875 10.098785 C 11.359375 10.130035 10.546875 11.255035 10.546875 11.255035 C 9.078125 13.192535 8.671875 39.223786 9.015625 39.223786 C 9.015625 39.223786 13.609376 40.593578 25.572918 41.187328 C 25.322918 43.124828 24.885418 45.781078 24.885418 45.781078 C 24.166668 45.781078 11.015625 43.968578 11.015625 43.968578 C 10.921875 44.031078 10.296875 45.124828 10.296875 45.124828 C 10.296875 45.124828 10.328125 52.624829 10.828125 53.593579 Z M 70.406253 30.005036 C 70.156253 32.473786 69.968753 41.031078 68.593753 41.124828 C 68.593753 41.124828 67.312503 41.624828 67.312503 41.562328 C 67.312503 41.468578 60.755211 42.031078 60.098961 41.468578 L 59.255211 40.343578 L 58.692711 37.130036 C 58.692711 37.130036 58.036461 29.598786 58.630211 28.692536 C 58.630211 28.692536 59.911461 27.442536 66.531253 27.442536 C 69.312503 27.442536 70.625003 27.536286 70.406253 30.005036 Z M 81.781253 9.442535 C 64.567711 5.791493 52.973961 9.442535 52.973961 9.442535 L 50.88021 11.567535 C 48.09896 29.817536 53.223961 50.624829 53.223961 50.624829 L 53.817711 52.781079 C 60.911461 59.781079 75.968753 55.374829 75.968753 55.468579 C 75.968753 55.562329 78.656253 52.874829 78.656253 52.874829 C 86.000004 36.442536 83.000003 11.005035 83.000003 11.005035 Z M 103.057296 54.281079 L 102.119796 38.286286 L 102.651046 37.005036 C 112.833338 36.911286 119.927088 36.536286 119.927088 36.536286 L 119.927088 32.661286 C 119.927088 32.661286 119.395838 29.505036 119.458338 29.567536 C 119.520838 29.630036 115.645838 29.692536 115.645838 29.692536 L 107.557296 29.723786 C 106.182296 25.848786 106.557296 21.098786 106.557296 21.098786 C 119.177088 20.473786 121.239588 20.192536 121.239588 20.192536 C 122.833338 15.286285 121.395838 8.223785 121.395838 8.223785 L 119.427088 8.098785 L 92.619796 8.786285 C 92.619796 8.786285 91.463545 11.286285 91.338545 13.286285 C 91.213545 15.286285 92.838546 54.999829 92.838546 54.999829 L 102.151046 55.031079 Z M 128.42188 35.317536 C 129.17188 35.255036 135.296881 35.098786 138.859381 34.942536 C 138.890631 42.093578 139.015631 47.906078 139.390631 52.624829 L 140.453131 54.062329 L 148.109381 54.718579 C 148.109381 54.718579 148.390631 45.249828 148.640631 34.442536 C 154.791673 34.130036 157.541673 33.817536 160.635423 33.630036 C 161.260423 29.661286 160.322923 11.723785 160.104173 8.817535 C 154.666673 8.192535 133.578131 6.536285 128.14063 7.223785 C 128.14063 7.223785 126.10938 24.723786 128.42188 35.317536 Z M 182.380216 29.942536 L 180.380216 33.598786 L 177.036466 39.781078 L 176.161466 8.630035 L 167.567715 8.911285 C 167.567715 8.911285 166.322924 53.437329 166.729174 53.531079 C 171.723965 54.687329 175.255216 54.093579 175.255216 54.093579 L 176.817716 53.624829 L 181.723966 43.531078 L 189.317716 54.531079 C 193.067716 56.562329 200.255217 55.656079 200.255217 55.656079 L 201.812508 55.187329 C 201.812508 55.187329 202.625008 22.880036 201.593758 9.442535 L 200.531258 8.005035 L 190.442716 7.661285 L 189.442716 7.973785 C 189.442716 7.973785 189.286466 14.348785 189.286466 15.005035 C 189.255216 15.692535 189.630216 39.562328 189.630216 39.562328 Z M 210.7448 8.817535 C 209.281259 23.536286 207.937509 36.786286 207.156259 52.781079 L 208.218759 53.968579 L 223.244801 54.718579 L 223.713551 45.093578 L 229.369801 45.468578 C 230.557301 53.687329 230.307301 52.249829 230.869801 54.281079 C 233.463551 54.374829 237.557302 54.218579 239.807302 54.218579 C 238.307302 38.536286 236.057302 24.380036 234.244801 8.755035 C 231.213551 8.473785 218.526051 6.911285 210.7448 8.817535 Z M 221.932301 37.098786 L 221.776051 27.942536 C 221.776051 27.942536 221.557301 26.973786 229.026051 27.505036 L 229.651051 37.536286 Z M 273.953136 37.067536 C 277.390637 31.067536 278.765637 16.473785 277.640637 8.005035 C 277.640637 8.005035 264.734386 6.348785 254.677094 7.567535 C 253.489594 7.723785 249.927094 8.130035 248.739594 8.567535 L 247.083344 10.192535 C 247.083344 10.192535 247.708344 30.880036 248.239594 54.218579 L 255.020844 54.687329 L 256.359386 54.031079 L 256.359386 38.536286 C 258.578136 38.723786 260.390636 39.036286 263.171886 39.192536 L 273.171886 55.343579 C 273.140636 55.374829 274.171886 55.437329 274.234386 55.499829 L 274.390636 55.406079 L 278.046887 53.312329 C 280.234387 51.531079 281.453137 49.906079 283.578137 47.906078 C 281.578137 44.781078 273.953136 37.067536 273.953136 37.067536 Z M 264.390636 22.630036 C 264.390636 22.630036 265.140636 27.692536 264.421886 30.817536 C 264.421886 30.817536 258.453136 31.505036 257.546886 31.411286 C 256.640636 31.505036 254.802094 31.130036 254.802094 31.130036 C 254.802094 31.130036 254.427094 28.911286 254.489594 28.067536 C 254.395844 27.223786 254.802094 22.786286 254.802094 22.786286 Z M 319.848972 20.192536 C 321.442722 15.286285 320.005222 8.223785 320.005222 8.223785 L 318.036472 8.098785 L 291.229179 8.786285 C 291.229179 8.786285 290.072929 11.286285 289.947929 13.286285 C 289.822929 15.286285 289.635429 47.031078 291.041679 50.781079 C 291.729179 52.624829 292.354179 54.531079 293.041679 54.687329 C 293.729179 54.843579 301.661471 55.468579 311.848971 55.374829 C 322.036472 55.281079 319.786472 55.531079 319.786472 55.531079 L 319.473972 46.656078 C 319.473972 46.656078 318.005222 45.687328 318.067722 45.749828 C 318.130222 45.812328 318.942722 45.874828 318.942722 45.874828 L 303.692721 45.749828 L 302.911471 44.906078 L 303.130221 37.005036 C 313.317721 36.911286 318.536472 36.536286 318.536472 36.536286 L 318.536472 32.661286 C 318.536472 32.661286 318.005222 29.505036 318.067722 29.567536 C 318.130222 29.630036 314.255221 29.692536 314.255221 29.692536 L 306.161471 29.723786 C 304.786471 25.848786 305.161471 21.098786 305.161471 21.098786 C 317.786472 20.473786 319.848972 20.192536 319.848972 20.192536 Z M 367.145849 36.380036 C 367.145849 36.380036 367.239599 29.380036 367.333349 26.005036 C 367.333349 26.005036 346.838556 26.255036 346.838556 26.317536 C 346.838556 26.442536 346.869806 34.880036 346.869806 34.880036 L 348.119806 35.411286 Z M 424.447934 20.192536 C 426.041684 15.286285 424.604184 8.223785 424.604184 8.223785 L 422.635434 8.098785 L 395.828141 8.786285 C 395.828141 8.786285 394.671891 11.286285 394.546891 13.286285 C 394.421891 15.286285 394.234391 47.031078 395.640641 50.781079 C 396.328142 52.624829 396.953142 54.531079 397.640642 54.687329 C 398.328142 54.843579 406.265642 55.468579 416.447934 55.374829 C 426.635434 55.281079 424.385434 55.531079 424.385434 55.531079 L 424.072934 46.656078 C 424.072934 46.656078 422.604184 45.687328 422.666684 45.749828 C 422.729184 45.812328 423.541684 45.874828 423.541684 45.874828 L 408.291684 45.749828 L 407.510434 44.906078 L 407.729184 37.005036 C 417.916684 36.911286 423.135434 36.536286 423.135434 36.536286 L 423.135434 32.661286 C 423.135434 32.661286 422.604184 29.505036 422.666684 29.567536 C 422.729184 29.630036 418.854184 29.692536 418.854184 29.692536 L 410.760434 29.723786 C 409.385434 25.848786 409.760434 21.098786 409.760434 21.098786 C 422.385434 20.473786 424.447934 20.192536 424.447934 20.192536 Z M 458.406269 35.098786 C 458.406269 35.098786 455.343769 27.567536 455.062519 26.942536 C 454.781269 26.317536 448.473977 13.567535 448.473977 13.567535 L 448.442727 13.536285 C 443.442727 12.380035 437.098977 12.661285 437.098977 12.661285 L 435.536476 13.130035 C 435.536476 13.130035 434.723976 40.437328 435.755226 53.874829 L 436.817727 55.312329 L 444.723977 55.656079 L 445.723977 55.343579 C 445.723977 55.343579 445.911477 48.968578 445.880227 48.312328 C 445.880227 47.656078 445.536477 38.411286 445.536477 38.411286 C 445.536477 38.411286 450.906269 47.968578 451.250019 48.531078 C 451.593769 49.093578 455.562519 55.624829 455.562519 55.624829 L 467.593769 55.968579 C 467.593769 55.968579 468.84377 8.630035 468.43752 8.536285 C 463.437519 7.380035 460.218769 7.661285 460.218769 7.661285 C 460.218769 7.661285 458.812519 7.723785 458.656269 8.130035 Z M 475.432311 6.598785 C 475.432311 6.598785 470.901061 40.999828 479.026062 56.468579 C 479.026062 56.468579 496.802104 54.999829 504.583354 54.062329 L 504.770854 45.437328 L 509.208355 45.093578 L 508.489605 36.848786 C 500.270854 36.098786 491.776062 37.786286 491.776062 37.786286 L 492.057312 41.687328 L 495.395854 41.906078 L 495.645854 47.062328 C 494.645854 47.093578 493.463562 47.124828 491.963562 47.124828 C 491.369812 47.124828 485.463562 46.968578 484.994812 46.249828 C 484.744812 45.718578 483.744812 35.255036 483.744812 35.255036 C 483.744812 35.255036 483.463562 33.286286 484.682312 31.567536 C 485.744812 30.067536 498.145854 30.567536 500.177104 30.192536 C 500.177104 30.286286 500.208354 30.286286 500.239604 30.192536 L 500.177104 30.192536 C 500.114604 29.661286 500.927104 24.911286 500.927104 24.911286 C 500.927104 22.098786 500.739604 11.098785 500.520854 8.192535 C 495.083354 7.567535 480.869812 5.916493 475.432311 6.598785 Z M 514.171896 40.874828 C 512.203146 43.968578 513.265646 54.593579 513.265646 54.593579 C 514.921896 55.062329 526.734397 56.093579 531.171897 54.562329 C 531.171897 54.562329 532.328147 47.468578 531.703147 43.499828 C 530.859397 43.437328 527.515647 43.281078 526.703147 43.187328 C 526.890647 36.630036 527.140647 27.223786 527.234397 21.723786 C 528.109397 21.630036 532.171897 21.473786 532.953147 21.442536 C 533.578147 17.473786 532.421897 7.567535 532.421897 7.567535 C 527.984397 6.041493 514.921896 7.067535 513.265646 7.536285 C 513.265646 7.536285 513.515646 22.598786 514.171896 23.130036 L 514.734396 23.567536 L 518.890647 23.692536 C 518.734397 29.380036 518.859397 40.906078 518.859397 40.906078 Z M 565.380232 35.098786 C 565.380232 35.098786 562.317732 27.567536 562.036482 26.942536 C 561.755232 26.317536 555.44794 13.567535 555.44794 13.567535 L 555.41669 13.536285 C 550.41669 12.380035 544.072939 12.661285 544.072939 12.661285 L 542.510439 13.130035 C 542.510439 13.130035 541.697939 40.437328 542.729189 53.874829 L 543.791689 55.312329 L 551.69794 55.656079 L 552.69794 55.343579 C 552.69794 55.343579 552.88544 48.968578 552.85419 48.312328 C 552.85419 47.656078 552.51044 38.411286 552.51044 38.411286 C 552.51044 38.411286 557.880232 47.968578 558.223982 48.531078 C 558.567732 49.093578 562.536482 55.624829 562.536482 55.624829 L 574.567732 55.968579 C 574.567732 55.968579 575.817732 8.630035 575.411482 8.536285 C 570.411482 7.380035 567.192732 7.661285 567.192732 7.661285 C 567.192732 7.661285 565.786482 7.723785 565.630232 8.130035 Z M 613.994817 20.192536 C 615.588567 15.286285 614.151067 8.223785 614.151067 8.223785 L 612.182317 8.098785 L 585.375024 8.786285 C 585.375024 8.786285 584.218774 11.286285 584.093774 13.286285 C 583.968774 15.286285 583.781274 47.031078 585.187524 50.781079 C 585.875024 52.624829 586.500024 54.531079 587.187524 54.687329 C 587.875024 54.843579 595.812525 55.468579 605.994817 55.374829 C 616.182317 55.281079 613.932317 55.531079 613.932317 55.531079 L 613.619817 46.656078 C 613.619817 46.656078 612.151067 45.687328 612.213567 45.749828 C 612.276067 45.812328 613.088567 45.874828 613.088567 45.874828 L 597.843775 45.749828 L 597.062525 44.906078 L 597.281275 37.005036 C 607.463567 36.911286 612.682317 36.536286 612.682317 36.536286 L 612.682317 32.661286 C 612.682317 32.661286 612.151067 29.505036 612.213567 29.567536 C 612.276067 29.630036 608.401067 29.692536 608.401067 29.692536 L 600.307317 29.723786 C 598.937525 25.848786 599.312525 21.098786 599.312525 21.098786 C 611.932317 20.473786 613.994817 20.192536 613.994817 20.192536 Z M 655.640652 20.192536 C 657.234402 15.286285 655.796902 8.223785 655.796902 8.223785 L 653.828152 8.098785 L 627.020859 8.786285 C 627.020859 8.786285 625.864609 11.286285 625.739609 13.286285 C 625.614609 15.286285 625.427109 47.031078 626.833359 50.781079 C 627.520859 52.624829 628.14586 54.531079 628.83336 54.687329 C 629.52086 54.843579 637.45836 55.468579 647.640652 55.374829 C 657.828152 55.281079 655.578152 55.531079 655.578152 55.531079 L 655.265652 46.656078 C 655.265652 46.656078 653.796902 45.687328 653.859402 45.749828 C 653.921902 45.812328 654.734402 45.874828 654.734402 45.874828 L 639.48961 45.749828 L 638.70836 44.906078 L 638.92711 37.005036 C 649.109402 36.911286 654.328152 36.536286 654.328152 36.536286 L 654.328152 32.661286 C 654.328152 32.661286 653.796902 29.505036 653.859402 29.567536 C 653.921902 29.630036 650.046902 29.692536 650.046902 29.692536 L 641.95836 29.723786 C 640.58336 25.848786 640.95836 21.098786 640.95836 21.098786 C 653.578152 20.473786 655.640652 20.192536 655.640652 20.192536 Z M 693.755237 37.067536 C 697.192737 31.067536 698.567737 16.473785 697.442737 8.005035 C 697.442737 8.005035 684.541695 6.348785 674.479195 7.567535 C 673.291695 7.723785 669.729195 8.130035 668.541695 8.567535 L 666.885444 10.192535 C 666.885444 10.192535 667.510444 30.880036 668.041695 54.218579 L 674.822945 54.687329 L 676.166695 54.031079 L 676.166695 38.536286 C 678.385445 38.723786 680.197945 39.036286 682.979195 39.192536 L 692.973987 55.343579 C 692.942737 55.374829 693.973987 55.437329 694.036487 55.499829 L 694.192737 55.406079 L 697.848987 53.312329 C 700.036488 51.531079 701.255238 49.906079 703.380238 47.906078 C 701.380238 44.781078 693.755237 37.067536 693.755237 37.067536 Z M 684.197945 22.630036 C 684.197945 22.630036 684.947945 27.692536 684.229195 30.817536 C 684.229195 30.817536 678.260445 31.505036 677.354195 31.411286 C 676.447945 31.505036 674.604195 31.130036 674.604195 31.130036 C 674.604195 31.130036 674.229195 28.911286 674.291695 28.067536 C 674.197945 27.223786 674.604195 22.786286 674.604195 22.786286 Z M 708.03128 40.874828 C 706.062529 43.968578 707.125029 54.593579 707.125029 54.593579 C 708.78128 55.062329 720.59378 56.093579 725.03128 54.562329 C 725.03128 54.562329 726.18753 47.468578 725.56253 43.499828 C 724.71878 43.437328 721.37503 43.281078 720.56253 43.187328 C 720.75003 36.630036 721.00003 27.223786 721.09378 21.723786 C 721.96878 21.630036 726.03128 21.473786 726.81253 21.442536 C 727.43753 17.473786 726.28128 7.567535 726.28128 7.567535 C 721.84378 6.041493 708.78128 7.067535 707.125029 7.536285 C 707.125029 7.536285 707.375029 22.598786 708.03128 23.130036 L 708.59378 23.567536 L 712.75003 23.692536 C 712.59378 29.380036 712.71878 40.906078 712.71878 40.906078 Z M 759.239615 35.098786 C 759.239615 35.098786 756.177115 27.567536 755.895865 26.942536 C 755.614615 26.317536 749.302115 13.567535 749.302115 13.567535 L 749.270865 13.536285 C 744.276073 12.380035 737.932322 12.661285 737.932322 12.661285 L 736.369822 13.130035 C 736.369822 13.130035 735.557322 40.437328 736.588572 53.874829 L 737.651072 55.312329 L 745.557323 55.656079 L 746.557323 55.343579 C 746.557323 55.343579 746.744823 48.968578 746.713573 48.312328 C 746.713573 47.656078 746.369823 38.411286 746.369823 38.411286 C 746.369823 38.411286 751.739615 47.968578 752.083365 48.531078 C 752.427115 49.093578 756.395865 55.624829 756.395865 55.624829 L 768.427115 55.968579 C 768.427115 55.968579 769.677115 8.630035 769.270865 8.536285 C 764.270865 7.380035 761.052115 7.661285 761.052115 7.661285 C 761.052115 7.661285 759.645865 7.723785 759.489615 8.130035 Z M 776.265657 6.598785 C 776.265657 6.598785 771.734407 40.999828 779.859407 56.468579 C 779.859407 56.468579 797.63545 54.999829 805.4167 54.062329 L 805.6042 45.437328 L 810.0417 45.093578 L 809.32295 36.848786 C 801.1042 36.098786 792.6042 37.786286 792.6042 37.786286 L 792.88545 41.687328 L 796.2292 41.906078 L 796.4792 47.062328 C 795.4792 47.093578 794.2917 47.124828 792.7917 47.124828 C 792.19795 47.124828 786.296908 46.968578 785.828158 46.249828 C 785.578158 45.718578 784.578158 35.255036 784.578158 35.255036 C 784.578158 35.255036 784.296908 33.286286 785.515658 31.567536 C 786.578158 30.067536 798.9792 30.567536 801.01045 30.192536 C 801.01045 30.286286 801.0417 30.286286 801.07295 30.192536 L 801.01045 30.192536 C 800.94795 29.661286 801.76045 24.911286 801.76045 24.911286 C 801.76045 22.098786 801.57295 11.098785 801.3542 8.192535 C 795.9167 7.567535 781.703158 5.916493 776.265657 6.598785 Z M 776.265657 6.598785 " stroke="#000000" stroke-width="4.23996" stroke-opacity="1" stroke-miterlimit="4"/><g fill="#ffbd59" fill-opacity="1"><g transform="translate(4.066406, 45.089972)"><g><path d="M 28.425781 -0.585938 C 28.917969 -0.796875 29.433594 -12.46875 29.433594 -12.46875 L 29.058594 -12.863281 L 9.234375 -13.917969 L 9.5625 -17.199219 C 9.5625 -17.199219 25.472656 -17.082031 26.011719 -17.199219 C 26.527344 -17.292969 25.917969 -34.941406 25.472656 -35.035156 C 24.277344 -35.269531 4.921875 -34.003906 4.5 -33.675781 C 4.453125 -33.652344 3.84375 -32.808594 3.84375 -32.808594 C 2.742188 -31.355469 2.4375 -11.835938 2.695312 -11.835938 C 2.695312 -11.835938 6.140625 -10.804688 15.113281 -10.359375 C 14.925781 -8.90625 14.597656 -6.914062 14.597656 -6.914062 C 14.058594 -6.914062 4.195312 -8.273438 4.195312 -8.273438 C 4.125 -8.226562 3.65625 -7.40625 3.65625 -7.40625 C 3.65625 -7.40625 3.679688 -1.78125 4.054688 -1.054688 Z M 28.425781 -0.585938 "/></g></g></g><g fill="#ffbd59" fill-opacity="1"><g transform="translate(35.019789, 45.089972)"><g><path d="M 17.785156 -18.746094 C 17.597656 -16.894531 17.457031 -10.476562 16.425781 -10.40625 C 16.425781 -10.40625 15.464844 -10.03125 15.464844 -10.078125 C 15.464844 -10.148438 10.546875 -9.726562 10.054688 -10.148438 L 9.421875 -10.992188 L 9 -13.402344 C 9 -13.402344 8.507812 -19.050781 8.953125 -19.730469 C 8.953125 -19.730469 9.914062 -20.667969 14.878906 -20.667969 C 16.964844 -20.667969 17.949219 -20.597656 17.785156 -18.746094 Z M 26.316406 -34.167969 C 13.402344 -36.910156 4.710938 -34.167969 4.710938 -34.167969 L 3.140625 -32.574219 C 1.054688 -18.886719 4.898438 -3.28125 4.898438 -3.28125 L 5.34375 -1.664062 C 10.664062 3.585938 21.957031 0.28125 21.957031 0.351562 C 21.957031 0.421875 23.972656 -1.59375 23.972656 -1.59375 C 29.480469 -13.917969 27.230469 -32.996094 27.230469 -32.996094 Z M 26.316406 -34.167969 "/></g></g></g><g fill="#ffbd59" fill-opacity="1"><g transform="translate(64.9656, 45.089972)"><g><path d="M 12.328125 -0.539062 L 11.625 -12.535156 L 12.023438 -13.496094 C 19.660156 -13.566406 24.980469 -13.847656 24.980469 -13.847656 L 24.980469 -16.753906 C 24.980469 -16.753906 24.582031 -19.121094 24.628906 -19.074219 C 24.675781 -19.027344 21.769531 -18.980469 21.769531 -18.980469 L 15.699219 -18.957031 C 14.667969 -21.863281 14.949219 -25.425781 14.949219 -25.425781 C 24.417969 -25.894531 25.964844 -26.105469 25.964844 -26.105469 C 27.160156 -29.785156 26.082031 -35.082031 26.082031 -35.082031 L 24.605469 -35.175781 L 4.5 -34.660156 C 4.5 -34.660156 3.632812 -32.785156 3.539062 -31.285156 C 3.445312 -29.785156 4.664062 0 4.664062 0 L 11.648438 0.0234375 Z M 12.328125 -0.539062 "/></g></g></g><g fill="#ffbd59" fill-opacity="1"><g transform="translate(94.302185, 45.089972)"><g><path d="M 2.015625 -14.761719 C 2.578125 -14.808594 7.171875 -14.925781 9.84375 -15.042969 C 9.867188 -9.679688 9.960938 -5.320312 10.242188 -1.78125 L 11.039062 -0.703125 L 16.777344 -0.210938 C 16.777344 -0.210938 16.988281 -7.3125 17.175781 -15.417969 C 21.792969 -15.652344 23.855469 -15.886719 26.175781 -16.027344 C 26.644531 -19.003906 25.941406 -32.457031 25.777344 -34.636719 C 21.699219 -35.105469 5.882812 -36.347656 1.804688 -35.832031 C 1.804688 -35.832031 0.28125 -22.707031 2.015625 -14.761719 Z M 2.015625 -14.761719 "/></g></g></g><g fill="#ffbd59" fill-opacity="1"><g transform="translate(121.764227, 45.089972)"><g><path d="M 15.019531 -18.792969 L 13.519531 -16.050781 L 11.015625 -11.414062 L 10.359375 -34.777344 L 3.914062 -34.566406 C 3.914062 -34.566406 2.976562 -1.171875 3.28125 -1.101562 C 7.03125 -0.234375 9.679688 -0.679688 9.679688 -0.679688 L 10.851562 -1.03125 L 14.527344 -8.601562 L 20.222656 -0.351562 C 23.035156 1.171875 28.425781 0.492188 28.425781 0.492188 L 29.597656 0.140625 C 29.597656 0.140625 30.207031 -24.089844 29.433594 -34.167969 L 28.636719 -35.246094 L 21.066406 -35.503906 L 20.316406 -35.269531 C 20.316406 -35.269531 20.199219 -30.488281 20.199219 -29.996094 C 20.175781 -29.480469 20.457031 -11.578125 20.457031 -11.578125 Z M 15.019531 -18.792969 "/></g></g></g><g fill="#ffbd59" fill-opacity="1"><g transform="translate(154.100079, 45.089972)"><g><path d="M 3.960938 -34.636719 C 2.859375 -23.597656 1.851562 -13.660156 1.265625 -1.664062 L 2.0625 -0.773438 L 13.332031 -0.210938 L 13.683594 -7.429688 L 17.925781 -7.148438 C 18.816406 -0.984375 18.628906 -2.0625 19.050781 -0.539062 C 20.996094 -0.46875 24.066406 -0.585938 25.753906 -0.585938 C 24.628906 -12.351562 22.941406 -22.964844 21.582031 -34.683594 C 19.308594 -34.894531 9.796875 -36.066406 3.960938 -34.636719 Z M 12.351562 -13.425781 L 12.234375 -20.292969 C 12.234375 -20.292969 12.070312 -21.019531 17.667969 -20.621094 L 18.136719 -13.097656 Z M 12.351562 -13.425781 "/></g></g></g><g fill="#ffbd59" fill-opacity="1"><g transform="translate(181.210651, 45.089972)"><g><path d="M 24.253906 -13.449219 C 26.832031 -17.949219 27.863281 -28.894531 27.019531 -35.246094 C 27.019531 -35.246094 17.339844 -36.488281 9.796875 -35.574219 C 8.90625 -35.457031 6.234375 -35.152344 5.34375 -34.824219 L 4.101562 -33.605469 C 4.101562 -33.605469 4.570312 -18.089844 4.96875 -0.585938 L 10.054688 -0.234375 L 11.0625 -0.726562 L 11.0625 -12.351562 C 12.722656 -12.210938 14.082031 -11.976562 16.167969 -11.859375 L 23.667969 0.257812 C 23.644531 0.28125 24.417969 0.328125 24.464844 0.375 L 24.582031 0.304688 L 27.324219 -1.265625 C 28.964844 -2.601562 29.878906 -3.820312 31.472656 -5.320312 C 29.972656 -7.664062 24.253906 -13.449219 24.253906 -13.449219 Z M 17.082031 -24.277344 C 17.082031 -24.277344 17.644531 -20.480469 17.105469 -18.136719 C 17.105469 -18.136719 12.628906 -17.621094 11.953125 -17.691406 C 11.273438 -17.621094 9.890625 -17.902344 9.890625 -17.902344 C 9.890625 -17.902344 9.609375 -19.566406 9.65625 -20.199219 C 9.585938 -20.832031 9.890625 -24.160156 9.890625 -24.160156 Z M 17.082031 -24.277344 "/></g></g></g><g fill="#ffbd59" fill-opacity="1"><g transform="translate(212.984152, 45.089972)"><g><path d="M 26.902344 -26.105469 C 28.097656 -29.785156 27.019531 -35.082031 27.019531 -35.082031 L 25.542969 -35.175781 L 5.4375 -34.660156 C 5.4375 -34.660156 4.570312 -32.785156 4.476562 -31.285156 C 4.382812 -29.785156 4.242188 -5.976562 5.296875 -3.164062 C 5.8125 -1.78125 6.28125 -0.351562 6.796875 -0.234375 C 7.3125 -0.117188 13.261719 0.351562 20.902344 0.28125 C 28.542969 0.210938 26.855469 0.398438 26.855469 0.398438 L 26.621094 -6.257812 C 26.621094 -6.257812 25.519531 -6.984375 25.566406 -6.9375 C 25.613281 -6.890625 26.222656 -6.84375 26.222656 -6.84375 L 14.785156 -6.9375 L 14.199219 -7.570312 L 14.363281 -13.496094 C 22.003906 -13.566406 25.917969 -13.847656 25.917969 -13.847656 L 25.917969 -16.753906 C 25.917969 -16.753906 25.519531 -19.121094 25.566406 -19.074219 C 25.613281 -19.027344 22.707031 -18.980469 22.707031 -18.980469 L 16.636719 -18.957031 C 15.605469 -21.863281 15.886719 -25.425781 15.886719 -25.425781 C 25.355469 -25.894531 26.902344 -26.105469 26.902344 -26.105469 Z M 26.902344 -26.105469 "/></g></g></g><g fill="#ffbd59" fill-opacity="1"><g transform="translate(244.218717, 45.089972)"><g/></g></g><g fill="#ffbd59" fill-opacity="1"><g transform="translate(258.652691, 45.089972)"><g><path d="M 16.707031 -13.964844 C 16.707031 -13.964844 16.777344 -19.214844 16.847656 -21.746094 C 16.847656 -21.746094 1.476562 -21.558594 1.476562 -21.511719 C 1.476562 -21.417969 1.5 -15.089844 1.5 -15.089844 L 2.4375 -14.691406 Z M 16.707031 -13.964844 "/></g></g></g><g fill="#ffbd59" fill-opacity="1"><g transform="translate(291.433764, 45.089972)"><g><path d="M 26.902344 -26.105469 C 28.097656 -29.785156 27.019531 -35.082031 27.019531 -35.082031 L 25.542969 -35.175781 L 5.4375 -34.660156 C 5.4375 -34.660156 4.570312 -32.785156 4.476562 -31.285156 C 4.382812 -29.785156 4.242188 -5.976562 5.296875 -3.164062 C 5.8125 -1.78125 6.28125 -0.351562 6.796875 -0.234375 C 7.3125 -0.117188 13.261719 0.351562 20.902344 0.28125 C 28.542969 0.210938 26.855469 0.398438 26.855469 0.398438 L 26.621094 -6.257812 C 26.621094 -6.257812 25.519531 -6.984375 25.566406 -6.9375 C 25.613281 -6.890625 26.222656 -6.84375 26.222656 -6.84375 L 14.785156 -6.9375 L 14.199219 -7.570312 L 14.363281 -13.496094 C 22.003906 -13.566406 25.917969 -13.847656 25.917969 -13.847656 L 25.917969 -16.753906 C 25.917969 -16.753906 25.519531 -19.121094 25.566406 -19.074219 C 25.613281 -19.027344 22.707031 -18.980469 22.707031 -18.980469 L 16.636719 -18.957031 C 15.605469 -21.863281 15.886719 -25.425781 15.886719 -25.425781 C 25.355469 -25.894531 26.902344 -26.105469 26.902344 -26.105469 Z M 26.902344 -26.105469 "/></g></g></g><g fill="#ffbd59" fill-opacity="1"><g transform="translate(322.668329, 45.089972)"><g><path d="M 21.136719 -14.925781 C 21.136719 -14.925781 18.839844 -20.574219 18.628906 -21.042969 C 18.417969 -21.511719 13.683594 -31.074219 13.683594 -31.074219 L 13.660156 -31.097656 C 9.914062 -31.964844 5.15625 -31.753906 5.15625 -31.753906 L 3.984375 -31.402344 C 3.984375 -31.402344 3.375 -10.921875 4.148438 -0.84375 L 4.945312 0.234375 L 10.875 0.492188 L 11.625 0.257812 C 11.625 0.257812 11.765625 -4.523438 11.742188 -5.015625 C 11.742188 -5.507812 11.484375 -12.445312 11.484375 -12.445312 C 11.484375 -12.445312 15.511719 -5.273438 15.769531 -4.851562 C 16.027344 -4.429688 19.003906 0.46875 19.003906 0.46875 L 28.027344 0.726562 C 28.027344 0.726562 28.964844 -34.777344 28.660156 -34.847656 C 24.910156 -35.714844 22.496094 -35.503906 22.496094 -35.503906 C 22.496094 -35.503906 21.441406 -35.457031 21.324219 -35.152344 Z M 21.136719 -14.925781 "/></g></g></g><g fill="#ffbd59" fill-opacity="1"><g transform="translate(353.363968, 45.089972)"><g><path d="M 3.210938 -36.300781 C 3.210938 -36.300781 -0.1875 -10.5 5.90625 1.101562 C 5.90625 1.101562 19.238281 0 25.074219 -0.703125 L 25.214844 -7.171875 L 28.542969 -7.429688 L 28.003906 -13.613281 C 21.839844 -14.175781 15.464844 -12.910156 15.464844 -12.910156 L 15.675781 -9.984375 L 18.183594 -9.820312 L 18.371094 -5.953125 C 17.621094 -5.929688 16.730469 -5.90625 15.605469 -5.90625 C 15.160156 -5.90625 10.734375 -6.023438 10.382812 -6.5625 C 10.195312 -6.960938 9.445312 -14.808594 9.445312 -14.808594 C 9.445312 -14.808594 9.234375 -16.285156 10.148438 -17.574219 C 10.945312 -18.699219 20.246094 -18.324219 21.769531 -18.605469 C 21.769531 -18.535156 21.792969 -18.535156 21.816406 -18.605469 L 21.769531 -18.605469 C 21.722656 -19.003906 22.332031 -22.566406 22.332031 -22.566406 C 22.332031 -24.675781 22.191406 -32.925781 22.027344 -35.105469 C 17.949219 -35.574219 7.289062 -36.816406 3.210938 -36.300781 Z M 3.210938 -36.300781 "/></g></g></g><g fill="#ffbd59" fill-opacity="1"><g transform="translate(382.442809, 45.089972)"><g><path d="M 3.1875 -10.59375 C 1.710938 -8.273438 2.507812 -0.304688 2.507812 -0.304688 C 3.75 0.046875 12.605469 0.820312 15.933594 -0.328125 C 15.933594 -0.328125 16.800781 -5.648438 16.332031 -8.625 C 15.699219 -8.671875 13.191406 -8.789062 12.582031 -8.859375 C 12.722656 -13.777344 12.910156 -20.832031 12.980469 -24.957031 C 13.636719 -25.027344 16.683594 -25.144531 17.269531 -25.167969 C 17.738281 -28.144531 16.871094 -35.574219 16.871094 -35.574219 C 13.542969 -36.722656 3.75 -35.949219 2.507812 -35.597656 C 2.507812 -35.597656 2.695312 -24.300781 3.1875 -23.902344 L 3.609375 -23.574219 L 6.726562 -23.480469 C 6.609375 -19.214844 6.703125 -10.570312 6.703125 -10.570312 Z M 3.1875 -10.59375 "/></g></g></g><g fill="#ffbd59" fill-opacity="1"><g transform="translate(402.898756, 45.089972)"><g><path d="M 21.136719 -14.925781 C 21.136719 -14.925781 18.839844 -20.574219 18.628906 -21.042969 C 18.417969 -21.511719 13.683594 -31.074219 13.683594 -31.074219 L 13.660156 -31.097656 C 9.914062 -31.964844 5.15625 -31.753906 5.15625 -31.753906 L 3.984375 -31.402344 C 3.984375 -31.402344 3.375 -10.921875 4.148438 -0.84375 L 4.945312 0.234375 L 10.875 0.492188 L 11.625 0.257812 C 11.625 0.257812 11.765625 -4.523438 11.742188 -5.015625 C 11.742188 -5.507812 11.484375 -12.445312 11.484375 -12.445312 C 11.484375 -12.445312 15.511719 -5.273438 15.769531 -4.851562 C 16.027344 -4.429688 19.003906 0.46875 19.003906 0.46875 L 28.027344 0.726562 C 28.027344 0.726562 28.964844 -34.777344 28.660156 -34.847656 C 24.910156 -35.714844 22.496094 -35.503906 22.496094 -35.503906 C 22.496094 -35.503906 21.441406 -35.457031 21.324219 -35.152344 Z M 21.136719 -14.925781 "/></g></g></g><g fill="#ffbd59" fill-opacity="1"><g transform="translate(433.594372, 45.089972)"><g><path d="M 26.902344 -26.105469 C 28.097656 -29.785156 27.019531 -35.082031 27.019531 -35.082031 L 25.542969 -35.175781 L 5.4375 -34.660156 C 5.4375 -34.660156 4.570312 -32.785156 4.476562 -31.285156 C 4.382812 -29.785156 4.242188 -5.976562 5.296875 -3.164062 C 5.8125 -1.78125 6.28125 -0.351562 6.796875 -0.234375 C 7.3125 -0.117188 13.261719 0.351562 20.902344 0.28125 C 28.542969 0.210938 26.855469 0.398438 26.855469 0.398438 L 26.621094 -6.257812 C 26.621094 -6.257812 25.519531 -6.984375 25.566406 -6.9375 C 25.613281 -6.890625 26.222656 -6.84375 26.222656 -6.84375 L 14.785156 -6.9375 L 14.199219 -7.570312 L 14.363281 -13.496094 C 22.003906 -13.566406 25.917969 -13.847656 25.917969 -13.847656 L 25.917969 -16.753906 C 25.917969 -16.753906 25.519531 -19.121094 25.566406 -19.074219 C 25.613281 -19.027344 22.707031 -18.980469 22.707031 -18.980469 L 16.636719 -18.957031 C 15.605469 -21.863281 15.886719 -25.425781 15.886719 -25.425781 C 25.355469 -25.894531 26.902344 -26.105469 26.902344 -26.105469 Z M 26.902344 -26.105469 "/></g></g></g><g fill="#ffbd59" fill-opacity="1"><g transform="translate(464.82896, 45.089972)"><g><path d="M 26.902344 -26.105469 C 28.097656 -29.785156 27.019531 -35.082031 27.019531 -35.082031 L 25.542969 -35.175781 L 5.4375 -34.660156 C 5.4375 -34.660156 4.570312 -32.785156 4.476562 -31.285156 C 4.382812 -29.785156 4.242188 -5.976562 5.296875 -3.164062 C 5.8125 -1.78125 6.28125 -0.351562 6.796875 -0.234375 C 7.3125 -0.117188 13.261719 0.351562 20.902344 0.28125 C 28.542969 0.210938 26.855469 0.398438 26.855469 0.398438 L 26.621094 -6.257812 C 26.621094 -6.257812 25.519531 -6.984375 25.566406 -6.9375 C 25.613281 -6.890625 26.222656 -6.84375 26.222656 -6.84375 L 14.785156 -6.9375 L 14.199219 -7.570312 L 14.363281 -13.496094 C 22.003906 -13.566406 25.917969 -13.847656 25.917969 -13.847656 L 25.917969 -16.753906 C 25.917969 -16.753906 25.519531 -19.121094 25.566406 -19.074219 C 25.613281 -19.027344 22.707031 -18.980469 22.707031 -18.980469 L 16.636719 -18.957031 C 15.605469 -21.863281 15.886719 -25.425781 15.886719 -25.425781 C 25.355469 -25.894531 26.902344 -26.105469 26.902344 -26.105469 Z M 26.902344 -26.105469 "/></g></g></g><g fill="#ffbd59" fill-opacity="1"><g transform="translate(496.063547, 45.089972)"><g><path d="M 24.253906 -13.449219 C 26.832031 -17.949219 27.863281 -28.894531 27.019531 -35.246094 C 27.019531 -35.246094 17.339844 -36.488281 9.796875 -35.574219 C 8.90625 -35.457031 6.234375 -35.152344 5.34375 -34.824219 L 4.101562 -33.605469 C 4.101562 -33.605469 4.570312 -18.089844 4.96875 -0.585938 L 10.054688 -0.234375 L 11.0625 -0.726562 L 11.0625 -12.351562 C 12.722656 -12.210938 14.082031 -11.976562 16.167969 -11.859375 L 23.667969 0.257812 C 23.644531 0.28125 24.417969 0.328125 24.464844 0.375 L 24.582031 0.304688 L 27.324219 -1.265625 C 28.964844 -2.601562 29.878906 -3.820312 31.472656 -5.320312 C 29.972656 -7.664062 24.253906 -13.449219 24.253906 -13.449219 Z M 17.082031 -24.277344 C 17.082031 -24.277344 17.644531 -20.480469 17.105469 -18.136719 C 17.105469 -18.136719 12.628906 -17.621094 11.953125 -17.691406 C 11.273438 -17.621094 9.890625 -17.902344 9.890625 -17.902344 C 9.890625 -17.902344 9.609375 -19.566406 9.65625 -20.199219 C 9.585938 -20.832031 9.890625 -24.160156 9.890625 -24.160156 Z M 17.082031 -24.277344 "/></g></g></g><g fill="#ffbd59" fill-opacity="1"><g transform="translate(527.837014, 45.089972)"><g><path d="M 3.1875 -10.59375 C 1.710938 -8.273438 2.507812 -0.304688 2.507812 -0.304688 C 3.75 0.046875 12.605469 0.820312 15.933594 -0.328125 C 15.933594 -0.328125 16.800781 -5.648438 16.332031 -8.625 C 15.699219 -8.671875 13.191406 -8.789062 12.582031 -8.859375 C 12.722656 -13.777344 12.910156 -20.832031 12.980469 -24.957031 C 13.636719 -25.027344 16.683594 -25.144531 17.269531 -25.167969 C 17.738281 -28.144531 16.871094 -35.574219 16.871094 -35.574219 C 13.542969 -36.722656 3.75 -35.949219 2.507812 -35.597656 C 2.507812 -35.597656 2.695312 -24.300781 3.1875 -23.902344 L 3.609375 -23.574219 L 6.726562 -23.480469 C 6.609375 -19.214844 6.703125 -10.570312 6.703125 -10.570312 Z M 3.1875 -10.59375 "/></g></g></g><g fill="#ffbd59" fill-opacity="1"><g transform="translate(548.29296, 45.089972)"><g><path d="M 21.136719 -14.925781 C 21.136719 -14.925781 18.839844 -20.574219 18.628906 -21.042969 C 18.417969 -21.511719 13.683594 -31.074219 13.683594 -31.074219 L 13.660156 -31.097656 C 9.914062 -31.964844 5.15625 -31.753906 5.15625 -31.753906 L 3.984375 -31.402344 C 3.984375 -31.402344 3.375 -10.921875 4.148438 -0.84375 L 4.945312 0.234375 L 10.875 0.492188 L 11.625 0.257812 C 11.625 0.257812 11.765625 -4.523438 11.742188 -5.015625 C 11.742188 -5.507812 11.484375 -12.445312 11.484375 -12.445312 C 11.484375 -12.445312 15.511719 -5.273438 15.769531 -4.851562 C 16.027344 -4.429688 19.003906 0.46875 19.003906 0.46875 L 28.027344 0.726562 C 28.027344 0.726562 28.964844 -34.777344 28.660156 -34.847656 C 24.910156 -35.714844 22.496094 -35.503906 22.496094 -35.503906 C 22.496094 -35.503906 21.441406 -35.457031 21.324219 -35.152344 Z M 21.136719 -14.925781 "/></g></g></g><g fill="#ffbd59" fill-opacity="1"><g transform="translate(578.988577, 45.089972)"><g><path d="M 3.210938 -36.300781 C 3.210938 -36.300781 -0.1875 -10.5 5.90625 1.101562 C 5.90625 1.101562 19.238281 0 25.074219 -0.703125 L 25.214844 -7.171875 L 28.542969 -7.429688 L 28.003906 -13.613281 C 21.839844 -14.175781 15.464844 -12.910156 15.464844 -12.910156 L 15.675781 -9.984375 L 18.183594 -9.820312 L 18.371094 -5.953125 C 17.621094 -5.929688 16.730469 -5.90625 15.605469 -5.90625 C 15.160156 -5.90625 10.734375 -6.023438 10.382812 -6.5625 C 10.195312 -6.960938 9.445312 -14.808594 9.445312 -14.808594 C 9.445312 -14.808594 9.234375 -16.285156 10.148438 -17.574219 C 10.945312 -18.699219 20.246094 -18.324219 21.769531 -18.605469 C 21.769531 -18.535156 21.792969 -18.535156 21.816406 -18.605469 L 21.769531 -18.605469 C 21.722656 -19.003906 22.332031 -22.566406 22.332031 -22.566406 C 22.332031 -24.675781 22.191406 -32.925781 22.027344 -35.105469 C 17.949219 -35.574219 7.289062 -36.816406 3.210938 -36.300781 Z M 3.210938 -36.300781 "/></g></g></g></svg>